<?xml version="1.0" standalone="no"?>
<!DOCTYPE svg PUBLIC "-//W3C//DTD SVG 20010904//EN"
 "http://www.w3.org/TR/2001/REC-SVG-20010904/DTD/svg10.dtd">
<svg version="1.0" xmlns="http://www.w3.org/2000/svg"
 width="2000.000000pt" height="2000.000000pt" viewBox="0 0 2000.000000 2000.000000"
 preserveAspectRatio="xMidYMid meet">
<metadata>
Created by potrace 1.11, written by Peter Selinger 2001-2013
</metadata>
<g transform="translate(0.000000,2000.000000) scale(0.100000,-0.100000)"
fill="#000000" stroke="none">
<path d="M5995 17088 c1 -10 4 -21 8 -24 3 -4 2 -15 -4 -25 -7 -14 -6 -19 3
-19 8 0 9 -3 3 -8 -15 -11 -17 -32 -3 -32 9 0 9 -3 0 -12 -8 -8 -8 -15 -1 -24
7 -8 7 -14 -1 -19 -8 -5 -8 -11 1 -21 6 -8 7 -14 2 -14 -5 0 -10 -7 -10 -15 0
-8 5 -15 11 -15 7 0 7 -3 1 -8 -14 -10 -17 -32 -5 -32 7 0 7 -6 0 -19 -7 -14
-7 -22 0 -26 8 -5 8 -11 1 -19 -7 -9 -7 -16 0 -23 8 -8 8 -13 0 -17 -8 -5 -8
-13 -1 -26 6 -11 6 -21 1 -24 -10 -7 -9 -25 2 -43 4 -6 3 -15 -3 -18 -6 -4 -7
-12 -3 -18 10 -15 10 -38 0 -54 -4 -6 -3 -15 3 -18 7 -4 8 -11 1 -18 -14 -18
-14 -29 1 -38 8 -6 9 -9 1 -9 -13 0 -12 -18 1 -39 6 -10 5 -12 -3 -7 -15 10
-11 -25 4 -36 7 -5 6 -8 0 -8 -12 0 -13 -49 -2 -67 4 -6 3 -14 -3 -18 -7 -4
-7 -12 0 -25 7 -13 7 -21 0 -25 -8 -5 -8 -11 0 -20 7 -9 7 -15 1 -19 -10 -7
-7 -37 5 -58 4 -6 3 -8 -4 -4 -12 7 -11 -41 1 -61 4 -6 1 -13 -5 -16 -10 -3
-10 -7 -1 -17 8 -9 9 -19 2 -32 -7 -13 -6 -18 3 -18 10 0 10 -2 0 -9 -16 -9
-15 -20 1 -40 9 -11 9 -13 0 -8 -8 5 -11 0 -10 -13 1 -11 6 -20 12 -20 6 0 7
-3 0 -8 -15 -10 -18 -55 -3 -46 7 5 8 3 2 -7 -13 -21 -14 -39 -1 -39 8 0 8 -3
2 -8 -14 -10 -15 -65 -1 -74 6 -4 6 -8 1 -8 -6 0 -10 -16 -11 -35 0 -20 3 -32
9 -28 6 4 7 1 1 -8 -12 -21 -14 -69 -2 -69 7 0 7 -5 1 -12 -11 -15 -11 -28 1
-47 6 -10 5 -12 -2 -7 -13 8 -12 -28 1 -40 4 -4 2 -13 -4 -20 -7 -8 -7 -14 1
-19 6 -3 7 -11 4 -17 -12 -19 -12 -68 0 -68 7 0 7 -3 1 -8 -13 -9 -14 -95 0
-104 6 -5 6 -8 -2 -8 -12 0 -12 -17 0 -36 3 -6 3 -14 0 -18 -11 -11 -10 -66 1
-66 7 0 8 -3 1 -8 -13 -9 -14 -95 0 -104 6 -5 7 -8 0 -8 -14 0 -15 -60 -1 -60
7 0 7 -3 1 -8 -14 -10 -17 -104 -3 -96 7 5 8 2 2 -7 -13 -22 -14 -43 -1 -51 9
-6 9 -8 0 -8 -12 0 -12 -17 0 -36 3 -6 3 -14 -1 -18 -11 -12 -10 -90 2 -105 8
-11 8 -13 -1 -8 -13 8 -13 -40 1 -62 6 -9 5 -12 -1 -8 -6 4 -10 -4 -10 -18 0
-14 5 -25 11 -25 7 0 8 -3 0 -8 -13 -9 -13 -115 1 -124 7 -5 7 -8 0 -8 -6 0
-11 -9 -12 -20 -1 -11 3 -20 8 -20 6 0 7 -5 3 -12 -11 -17 -12 -68 -2 -74 5
-3 5 -11 1 -17 -12 -20 -12 -37 0 -37 8 0 8 -3 2 -8 -14 -10 -17 -32 -4 -32 5
0 7 -5 4 -11 -9 -14 -14 -59 -6 -54 4 2 7 -5 7 -15 0 -10 -4 -16 -8 -14 -4 3
-8 0 -8 -5 0 -6 5 -11 10 -11 12 0 9 -22 -5 -32 -7 -5 -7 -8 0 -8 6 0 10 -39
10 -98 0 -53 4 -105 8 -114 5 -12 3 -18 -5 -18 -8 0 -9 -3 -3 -8 6 -4 11 -34
12 -67 1 -33 4 -98 8 -145 4 -47 8 -109 8 -137 1 -29 7 -53 12 -53 6 0 3 -5
-5 -10 -8 -5 -10 -10 -4 -10 6 0 10 -23 10 -59 -1 -33 2 -57 6 -55 4 2 9 0 12
-5 4 -5 2 -12 -3 -16 -6 -3 -7 -15 -2 -28 5 -13 10 -39 10 -58 2 -37 8 -94 11
-94 3 0 12 -75 13 -112 1 -18 5 -33 9 -33 3 0 5 -8 3 -17 -1 -10 1 -25 6 -34
5 -10 3 -21 -4 -28 -9 -10 -9 -12 1 -9 10 2 15 -14 18 -56 2 -33 8 -64 13 -70
5 -6 7 -19 6 -28 -2 -10 1 -20 5 -23 5 -3 6 -13 3 -22 -5 -12 -3 -14 8 -8 12
7 12 6 1 -7 -9 -12 -10 -18 -2 -23 6 -4 9 -13 6 -21 -3 -8 -1 -14 4 -14 5 0 7
-9 5 -20 -2 -11 1 -22 6 -26 6 -3 5 -12 -3 -22 -10 -12 -10 -14 0 -8 8 5 12 0
13 -13 2 -33 4 -39 12 -47 4 -4 7 -18 7 -31 0 -14 4 -33 10 -43 5 -10 11 -32
12 -49 1 -17 6 -31 11 -31 5 0 7 -7 3 -15 -3 -8 -1 -15 4 -15 6 0 9 -3 8 -7
-3 -13 14 -77 23 -89 5 -6 10 -23 11 -38 1 -14 5 -26 9 -26 3 0 6 -6 7 -12 1
-27 12 -62 21 -71 5 -5 7 -16 4 -25 -4 -10 -2 -13 5 -8 8 4 10 2 6 -7 -3 -8 1
-21 9 -28 7 -8 12 -20 9 -27 -2 -7 1 -19 8 -27 6 -8 9 -19 5 -25 -3 -5 -2 -10
3 -10 9 0 25 -37 23 -52 -1 -5 4 -8 10 -8 6 0 8 -9 4 -20 -5 -14 -2 -20 10
-20 9 0 14 -4 10 -10 -3 -5 -2 -17 4 -27 40 -78 91 -191 91 -201 0 -7 4 -11 9
-7 6 3 8 -3 6 -14 -2 -11 3 -22 11 -25 8 -3 14 -14 14 -24 0 -11 6 -25 14 -31
8 -7 17 -23 20 -36 4 -14 11 -25 16 -25 6 0 10 -6 10 -14 0 -8 3 -16 8 -18 4
-1 18 -24 31 -50 13 -27 28 -48 33 -48 5 0 7 -4 4 -9 -3 -4 5 -21 18 -36 13
-16 30 -40 38 -54 7 -14 15 -28 18 -31 3 -3 17 -21 30 -40 14 -19 32 -44 42
-54 10 -11 18 -23 18 -28 0 -7 24 -36 73 -89 9 -10 14 -19 11 -19 -3 0 11 -16
30 -35 20 -19 33 -35 30 -35 -4 0 9 -15 29 -34 20 -18 33 -36 30 -40 -4 -3 1
-6 10 -6 8 0 19 -9 22 -20 3 -11 12 -20 20 -20 7 0 15 -10 18 -22 4 -12 9 -19
12 -16 8 7 62 -44 57 -54 -2 -5 4 -8 13 -8 9 0 13 -4 10 -10 -3 -5 -1 -10 5
-10 6 0 26 -16 45 -36 19 -20 35 -33 35 -30 0 2 21 -15 48 -39 76 -71 90 -83
95 -79 2 2 12 -5 22 -16 10 -11 24 -20 32 -20 7 0 13 -6 13 -12 0 -8 3 -9 8
-3 9 14 62 47 62 40 0 -3 11 6 24 20 14 15 27 26 30 26 18 -2 25 1 46 19 13
11 32 20 42 20 12 0 16 4 12 12 -4 7 -3 8 4 4 7 -4 21 2 33 13 12 11 26 18 31
15 4 -3 8 0 8 5 0 6 7 11 15 11 8 0 15 5 15 11 0 5 5 7 10 4 6 -3 23 3 39 14
16 12 36 21 45 21 9 0 16 5 16 10 0 6 8 10 18 10 10 0 23 5 30 12 7 7 12 8 12
2 0 -5 4 -3 9 4 4 7 14 14 22 16 8 1 24 7 36 14 12 7 29 12 37 12 9 0 16 5 16
11 0 5 4 8 9 4 5 -3 12 -1 16 5 4 6 11 8 16 5 5 -4 9 -1 9 4 0 6 9 11 19 11
11 0 23 5 26 11 4 6 13 8 21 5 8 -3 14 -1 14 3 0 5 7 12 16 15 9 4 13 2 8 -5
-3 -6 5 -3 19 6 14 9 32 18 39 19 7 1 23 8 36 14 15 9 22 9 22 2 0 -6 7 -4 16
4 14 15 21 17 57 20 6 1 15 5 18 9 3 4 16 9 27 10 12 1 22 5 22 10 0 5 7 7 15
4 8 -4 17 -2 20 3 4 6 17 10 31 10 13 0 24 4 24 9 0 5 8 8 18 6 9 -1 29 4 45
12 15 7 27 11 27 7 0 -4 6 -2 13 3 6 5 19 9 27 8 8 -1 27 5 43 12 15 7 27 11
27 9 0 -3 20 1 44 8 25 8 47 11 50 8 4 -3 6 0 6 7 0 7 6 11 14 8 8 -3 21 0 31
6 14 11 13 13 -11 15 -15 1 -33 7 -40 13 -8 6 -14 8 -14 4 0 -4 -12 0 -26 10
-15 9 -23 12 -19 5 9 -14 -36 9 -47 25 -4 6 -8 6 -8 1 0 -5 -7 -3 -15 4 -8 6
-18 9 -24 6 -5 -3 -11 -1 -13 4 -2 6 -13 12 -26 13 -12 0 -22 5 -22 9 0 4 -18
13 -40 19 -22 7 -40 16 -40 21 0 4 -9 8 -20 8 -11 0 -20 5 -20 10 0 6 -9 10
-20 10 -11 0 -20 5 -20 11 0 5 -5 7 -10 4 -6 -3 -13 1 -16 9 -3 9 -10 13 -15
10 -5 -3 -16 2 -25 10 -8 9 -22 16 -30 16 -8 0 -14 5 -14 12 0 6 -3 9 -6 5 -4
-3 -22 5 -40 20 -19 14 -34 21 -34 17 0 -5 -5 -1 -11 9 -5 9 -15 17 -20 17 -6
0 -17 6 -24 13 -33 29 -43 35 -48 31 -3 -3 -10 4 -17 15 -6 12 -17 21 -25 21
-8 0 -15 5 -15 10 0 6 -5 10 -11 10 -6 0 -24 14 -39 30 -15 17 -33 30 -39 30
-7 0 -14 7 -17 15 -4 8 -10 12 -15 9 -5 -3 -9 2 -9 10 0 9 -4 16 -9 16 -12 0
-81 69 -81 81 0 5 -3 8 -7 6 -5 -1 -10 3 -13 8 -2 6 -17 21 -32 33 -16 13 -25
28 -22 33 3 5 0 8 -8 7 -7 -2 -12 3 -11 10 2 6 -2 12 -8 12 -13 0 -39 25 -39
39 0 5 -13 24 -30 42 -16 18 -27 36 -24 40 2 4 -5 10 -16 14 -11 3 -20 15 -20
26 0 10 -4 19 -10 19 -5 0 -10 6 -10 13 0 7 -8 22 -18 33 -10 10 -25 34 -32
52 -8 17 -18 32 -22 32 -5 0 -8 9 -8 20 0 10 -7 23 -16 28 -9 5 -15 11 -13 13
5 9 -13 49 -22 49 -5 0 -9 9 -9 19 0 11 -7 27 -16 35 -8 9 -13 20 -10 25 4 5
2 11 -3 13 -5 1 -11 12 -13 23 -1 11 -9 26 -16 34 -7 7 -11 18 -9 25 2 6 -2
17 -10 24 -7 8 -11 18 -8 23 4 5 1 9 -5 9 -6 0 -9 4 -5 9 3 5 1 12 -5 16 -6 4
-8 11 -5 16 4 5 1 9 -5 9 -6 0 -8 5 -5 10 3 6 2 10 -3 10 -6 0 -8 9 -5 20 3
11 1 20 -5 20 -6 0 -14 15 -18 33 -4 17 -9 39 -11 47 -2 8 -5 21 -5 28 -1 6
-6 12 -11 12 -6 0 -7 3 -4 7 4 3 0 17 -9 31 -9 13 -11 21 -4 17 9 -6 9 -3 1
13 -6 11 -11 30 -11 41 0 12 -4 21 -10 21 -5 0 -7 7 -4 15 4 8 2 15 -3 15 -5
0 -8 14 -7 30 1 17 -1 30 -5 30 -4 0 -8 12 -9 26 -1 15 -7 33 -13 40 -9 11 -8
14 1 14 9 0 9 4 3 13 -6 6 -14 30 -18 52 -4 22 -9 51 -12 65 -3 14 -5 33 -5
43 1 11 -4 15 -11 10 -9 -5 -9 -3 0 8 7 9 9 19 4 25 -9 9 -19 64 -25 144 -2
25 -5 46 -6 48 -2 1 -3 6 -4 11 0 5 -4 13 -8 16 -4 4 -3 17 3 28 6 10 7 17 2
14 -6 -4 -11 16 -12 44 -2 63 -4 72 -16 81 -7 5 -7 8 0 8 10 0 12 43 2 70 -3
8 -6 22 -6 30 -2 82 -9 151 -14 156 -3 4 -2 15 3 25 7 12 7 20 0 24 -8 5 -7
12 2 23 10 12 10 14 1 8 -14 -8 -13 -12 -16 181 -1 51 -5 93 -9 93 -4 0 -3 12
2 26 7 18 7 23 -1 18 -8 -4 -8 0 0 15 7 12 8 21 2 21 -10 0 -9 19 2 37 4 6 3
14 -3 18 -5 3 -10 11 -10 16 0 6 5 7 12 3 7 -5 8 -3 3 7 -12 19 -14 139 -2
139 6 0 6 4 0 13 -6 7 -10 94 -9 204 1 123 -3 193 -9 193 -5 0 -3 5 5 10 12 8
13 11 1 19 -7 5 -9 11 -4 14 9 6 8 67 -1 110 -2 9 -1 17 3 17 4 0 7 10 5 23
-1 12 -3 22 -4 22 -1 0 -3 8 -5 18 -2 9 0 17 5 17 4 0 4 18 0 40 -4 22 -4 40
1 40 4 0 4 14 -1 30 -5 19 -5 30 1 30 6 0 5 8 -1 20 -6 11 -7 20 -2 20 5 0 6
23 2 50 -4 28 -2 50 2 50 5 0 6 5 3 11 -11 17 -11 139 0 143 6 3 4 5 -3 5 -10
1 -10 6 -2 21 8 15 8 20 -2 20 -10 0 -10 2 1 9 9 6 10 11 3 15 -6 4 -8 14 -5
22 3 9 0 20 -8 25 -11 7 -10 9 4 9 11 0 15 4 11 12 -10 16 -11 108 -1 108 5 0
5 5 1 12 -10 17 -11 68 0 68 5 0 3 7 -4 15 -10 12 -10 15 1 15 9 0 10 3 4 8
-5 4 -10 30 -10 57 0 28 5 53 10 57 7 5 7 8 0 8 -5 0 -10 14 -10 30 0 17 3 30
7 30 4 0 3 14 -2 30 -5 17 -5 30 0 30 5 0 5 13 0 30 -5 19 -5 30 1 30 6 0 5 8
-1 20 -6 11 -7 20 -2 20 5 0 6 23 2 50 -4 28 -2 50 2 50 5 0 6 5 2 12 -9 15
-11 68 -2 68 4 0 3 14 -2 30 -5 17 -5 30 -1 30 4 0 5 23 1 50 -4 28 -3 50 0
50 4 0 4 18 0 40 -4 22 -4 40 0 40 11 0 7 34 -5 42 -6 5 -6 8 1 8 8 0 9 11 4
35 -4 19 -5 35 -1 35 4 0 4 27 1 60 -3 33 -3 60 1 60 3 0 3 18 -1 40 -4 22 -4
40 0 40 8 0 5 44 -5 59 -3 6 0 11 7 11 9 0 9 3 -2 10 -11 7 -11 10 -2 10 10 0
10 5 2 20 -8 15 -8 20 2 20 10 0 10 2 -1 9 -9 6 -10 11 -2 15 8 5 8 13 1 27
-6 10 -7 19 -2 19 5 0 6 18 2 40 -4 22 -4 40 0 40 9 0 6 37 -4 47 -4 5 -279 8
-610 8 -568 0 -602 -1 -601 -17z"/>
<path d="M12793 17092 c-10 -10 -11 -18 -3 -27 8 -10 8 -15 -1 -20 -8 -6 -7
-10 2 -16 9 -5 10 -9 3 -9 -8 0 -9 -11 -4 -35 4 -19 4 -35 0 -35 -4 0 -4 -18
0 -40 4 -22 4 -40 0 -40 -8 0 -7 -31 3 -47 4 -6 2 -15 -4 -19 -8 -4 -7 -9 2
-15 9 -5 10 -9 3 -9 -8 0 -9 -11 -4 -35 4 -19 5 -35 1 -35 -3 0 -4 -31 -1 -70
3 -38 2 -70 -1 -70 -7 0 -3 -56 6 -77 2 -7 1 -14 -3 -17 -4 -2 -5 -36 -2 -75
3 -39 3 -71 -1 -71 -3 0 -5 -10 -3 -22 1 -13 3 -23 4 -23 1 0 2 -17 3 -38 1
-20 -1 -37 -5 -37 -4 0 -3 -13 2 -30 5 -17 5 -30 0 -30 -5 0 -5 -13 0 -30 5
-17 5 -30 0 -30 -5 0 -5 -13 0 -30 5 -17 5 -30 0 -30 -5 0 -5 -13 0 -30 5 -16
5 -30 1 -30 -4 0 -5 -22 -1 -50 4 -27 3 -50 -2 -50 -4 0 -3 -11 2 -25 6 -17 6
-25 -1 -25 -6 0 -7 -5 -3 -12 11 -17 11 -58 1 -58 -4 0 -5 -5 -1 -11 10 -16
11 -129 1 -129 -4 0 -3 -10 4 -21 7 -15 8 -19 0 -15 -7 5 -9 1 -5 -8 3 -9 11
-16 18 -16 6 0 6 -4 -3 -9 -9 -6 -12 -21 -9 -45 2 -20 0 -36 -6 -36 -6 0 -5
-5 1 -11 8 -8 8 -20 3 -34 -5 -13 -6 -25 -3 -28 8 -9 9 -107 0 -107 -5 0 -5
-5 -1 -12 9 -13 11 -78 3 -78 -3 0 -3 -22 1 -50 4 -27 3 -50 -1 -50 -4 0 -5
-9 -2 -20 3 -11 10 -17 17 -13 6 3 3 -2 -6 -13 -14 -16 -15 -23 -6 -32 9 -9 9
-12 -2 -12 -13 0 -13 -2 0 -10 12 -8 12 -10 1 -10 -9 0 -10 -4 -3 -12 5 -7 6
-22 2 -33 -4 -11 -4 -28 1 -37 5 -10 5 -19 0 -23 -6 -3 -6 -17 -1 -35 5 -17 5
-30 1 -30 -11 0 0 -64 13 -72 7 -5 4 -8 -6 -8 -10 0 -18 -4 -18 -10 0 -5 5
-10 11 -10 8 0 8 -5 -1 -15 -10 -12 -10 -15 1 -15 11 0 11 -3 -1 -11 -11 -8
-12 -12 -2 -16 6 -2 9 -10 5 -16 -11 -18 -11 -47 0 -47 6 0 6 -5 1 -12 -5 -7
-9 -129 -9 -270 0 -142 -4 -258 -9 -258 -5 0 -3 -7 4 -15 10 -12 10 -15 -1
-15 -11 0 -11 -3 1 -11 10 -7 11 -12 3 -15 -8 -4 -9 -14 -3 -35 5 -16 5 -29 1
-29 -12 0 -8 -54 4 -62 6 -5 6 -8 -2 -8 -6 0 -11 -17 -11 -42 0 -111 -6 -194
-14 -205 -5 -7 -5 -14 2 -18 7 -4 7 -13 -1 -27 -9 -16 -8 -19 2 -13 8 6 10 4
3 -6 -5 -8 -10 -39 -12 -69 -6 -112 -10 -165 -12 -165 -2 0 -7 -52 -11 -107
-1 -21 -7 -38 -12 -38 -5 0 -4 -6 2 -14 7 -9 8 -17 2 -20 -5 -3 -8 -17 -6 -31
1 -14 -1 -25 -4 -25 -5 0 -10 -41 -12 -103 0 -9 -3 -15 -8 -13 -4 3 -5 -11 -3
-31 4 -28 2 -34 -9 -27 -12 6 -12 5 -1 -8 9 -12 10 -18 2 -23 -6 -4 -9 -13 -6
-21 3 -8 1 -14 -3 -14 -5 0 -7 -9 -4 -20 3 -13 0 -20 -8 -20 -11 0 -11 -2 1
-10 8 -5 10 -10 3 -10 -6 0 -9 -9 -6 -20 3 -11 1 -20 -4 -20 -5 0 -9 -13 -8
-30 1 -16 -2 -30 -7 -30 -4 0 -7 -3 -7 -7 4 -24 -2 -63 -9 -59 -4 3 -7 -8 -6
-25 1 -16 -1 -29 -5 -29 -6 0 -10 -17 -13 -57 -1 -7 -4 -13 -8 -13 -4 0 -7 -6
-8 -12 -1 -15 -10 -53 -12 -53 -1 0 -3 -11 -6 -24 -2 -14 -9 -30 -14 -36 -5
-7 -7 -15 -3 -18 3 -4 0 -13 -7 -22 -7 -8 -9 -15 -4 -15 5 0 1 -5 -9 -11 -9
-6 -15 -14 -12 -18 5 -10 -40 -141 -52 -150 -5 -3 -9 -14 -11 -24 -2 -10 -16
-43 -33 -75 -16 -31 -29 -62 -29 -69 0 -7 -4 -13 -10 -13 -5 0 -10 -9 -10 -20
0 -11 -4 -20 -9 -20 -5 0 -14 -13 -21 -29 -6 -16 -20 -38 -31 -50 -11 -12 -15
-21 -8 -21 7 0 2 -8 -9 -19 -12 -10 -22 -23 -22 -28 0 -6 -7 -16 -15 -23 -8
-7 -13 -15 -11 -19 6 -10 -21 -31 -30 -23 -4 4 -4 2 -1 -4 3 -6 -3 -21 -14
-32 -11 -12 -16 -22 -12 -22 4 0 -2 -7 -13 -15 -10 -8 -16 -15 -12 -15 4 0 -3
-10 -15 -23 -27 -29 -89 -97 -144 -160 -24 -27 -43 -46 -43 -43 0 3 -13 -8
-28 -24 -16 -16 -33 -26 -37 -22 -5 4 -5 2 -1 -5 4 -7 -5 -19 -21 -30 -15 -10
-34 -24 -42 -31 -8 -7 -24 -20 -37 -29 -13 -8 -21 -20 -17 -27 3 -6 3 -8 -2
-4 -5 5 -23 -3 -41 -17 -18 -14 -38 -25 -45 -25 -7 0 -9 -3 -6 -7 4 -3 -3 -11
-16 -18 -43 -23 -72 -40 -77 -47 -3 -4 -30 -20 -60 -36 -79 -41 -103 -55 -124
-72 -10 -8 -20 -14 -22 -12 -2 1 -30 -10 -61 -24 -31 -15 -63 -27 -70 -27 -7
0 -11 -3 -8 -6 5 -4 -74 -39 -101 -45 -7 -1 -20 -8 -30 -16 -16 -13 -17 -13
-9 0 8 13 6 13 -8 2 -9 -8 -20 -11 -26 -8 -5 3 -11 1 -13 -4 -2 -6 -12 -13
-23 -15 -11 -2 -21 -4 -22 -5 -2 -2 -7 -3 -12 -4 -5 0 -13 -4 -17 -9 -4 -4
-16 -7 -26 -7 -10 0 -18 -4 -18 -8 0 -5 -14 -8 -31 -7 -17 1 -33 -4 -36 -11
-2 -6 -12 -11 -21 -9 -9 1 -21 0 -27 -4 -5 -3 -16 -7 -22 -8 -31 -7 -48 -12
-48 -13 0 -2 -17 -6 -60 -15 -42 -9 -48 -11 -65 -18 -8 -4 -26 -8 -40 -9 -14
-2 -29 -6 -35 -9 -5 -3 -20 -4 -32 -3 -13 0 -23 -2 -23 -6 0 -3 -18 -6 -40 -5
-27 1 -37 -2 -31 -9 6 -8 -1 -11 -22 -10 -18 1 -42 -3 -54 -7 -15 -5 -23 -5
-23 2 0 6 -5 7 -12 2 -7 -4 -16 -8 -20 -9 -5 -1 -9 -2 -10 -4 -2 -1 -16 -3
-33 -5 -16 -3 -50 -7 -75 -10 -25 -3 -61 -7 -81 -9 -20 -2 -40 -5 -45 -8 -10
-5 -50 -9 -111 -11 -24 -1 -43 -4 -43 -7 0 -5 -30 -7 -137 -13 -24 -1 -43 -5
-43 -8 0 -3 -17 -6 -37 -7 -46 -2 -64 -5 -80 -15 -8 -5 -13 -3 -13 5 0 8 -3 9
-8 3 -4 -5 -11 -11 -17 -11 -5 -1 -32 -5 -60 -9 -27 -3 -61 -9 -75 -12 -13 -4
-34 -7 -45 -7 -11 -1 -26 -6 -34 -10 -11 -7 -12 -6 -6 5 7 11 6 12 -6 2 -8 -7
-33 -14 -54 -17 -22 -2 -42 -5 -45 -6 -3 -2 -8 -2 -12 -1 -5 0 -8 -3 -8 -7 0
-5 -10 -8 -22 -7 -13 1 -31 -2 -40 -7 -13 -6 -18 -5 -18 4 0 11 -2 10 -9 0 -4
-7 -19 -14 -32 -14 -13 -1 -28 -5 -34 -8 -5 -4 -20 -6 -32 -5 -13 1 -23 -2
-23 -7 0 -5 -4 -6 -10 -3 -5 3 -10 3 -10 -2 0 -7 -18 -11 -72 -16 -10 -1 -18
-5 -18 -10 0 -5 -7 -7 -15 -4 -8 4 -17 2 -21 -4 -3 -6 -12 -8 -20 -5 -8 3 -14
2 -14 -2 0 -4 -12 -9 -27 -10 -15 -1 -29 -5 -32 -10 -7 -8 -26 -13 -58 -16
-13 0 -23 -5 -23 -9 0 -5 -4 -5 -10 -2 -5 3 -10 1 -10 -4 0 -6 -5 -11 -11 -11
-5 0 -7 6 -3 13 4 6 -2 3 -14 -7 -12 -11 -22 -16 -22 -11 0 4 -7 2 -15 -5 -8
-7 -15 -9 -15 -5 0 4 -7 2 -15 -5 -8 -6 -19 -9 -25 -5 -5 3 -10 2 -10 -3 0 -9
-55 -26 -72 -23 -5 0 -8 -3 -8 -9 0 -5 -11 -10 -25 -10 -14 0 -25 -4 -25 -10
0 -5 -6 -10 -14 -10 -8 0 -25 -4 -38 -9 -13 -5 -26 -9 -30 -10 -4 -1 -27 -12
-50 -25 -24 -13 -49 -21 -55 -19 -7 3 -13 0 -13 -5 0 -9 -37 -25 -52 -23 -5 1
-8 -3 -8 -9 0 -6 -3 -9 -7 -9 -14 3 -93 -34 -93 -43 0 -4 -6 -8 -13 -8 -14 0
-78 -29 -87 -39 -3 -3 -27 -17 -55 -31 -27 -14 -52 -28 -53 -33 -2 -4 -8 -5
-13 -1 -5 3 -9 0 -9 -6 0 -6 -4 -9 -9 -6 -5 3 -12 -1 -15 -10 -3 -8 -19 -20
-36 -25 -16 -6 -30 -15 -30 -21 0 -6 -7 -8 -15 -4 -9 3 -15 0 -15 -10 0 -8 -4
-13 -9 -10 -4 3 -16 -3 -26 -14 -10 -11 -24 -20 -32 -20 -7 0 -13 -5 -13 -11
0 -5 -4 -8 -8 -5 -5 3 -16 -3 -25 -12 -19 -21 -29 -28 -91 -72 -28 -19 -57
-42 -67 -50 -9 -8 -38 -33 -64 -55 -26 -22 -58 -50 -71 -62 -13 -13 -28 -23
-34 -23 -5 0 -10 -6 -10 -13 0 -8 -11 -20 -25 -27 -13 -7 -22 -17 -19 -22 3
-4 1 -8 -4 -8 -14 0 -82 -67 -82 -80 0 -6 -4 -9 -9 -5 -5 3 -12 -4 -16 -15 -4
-11 -11 -18 -16 -15 -5 4 -9 1 -9 -5 0 -7 -13 -25 -30 -40 -16 -15 -30 -31
-30 -34 0 -4 -12 -19 -27 -35 -16 -16 -37 -40 -48 -55 -11 -14 -30 -37 -43
-52 -12 -14 -20 -30 -16 -35 3 -5 2 -8 -3 -7 -4 2 -9 -1 -10 -6 0 -5 -8 -13
-17 -18 -9 -5 -16 -14 -16 -21 0 -7 -9 -18 -20 -25 -12 -7 -18 -17 -15 -21 2
-5 -2 -12 -11 -15 -9 -4 -14 -13 -10 -22 3 -8 2 -12 -4 -9 -6 3 -10 -1 -10 -9
0 -9 -3 -16 -7 -16 -10 0 -47 -62 -45 -72 1 -5 -2 -8 -8 -8 -5 0 -10 -7 -10
-15 0 -8 -5 -15 -11 -15 -6 0 -9 -7 -5 -15 3 -9 0 -15 -10 -15 -8 0 -13 -4
-10 -8 3 -5 -2 -18 -12 -28 -9 -11 -18 -26 -20 -34 -2 -8 -11 -24 -20 -34 -13
-15 -13 -17 -2 -11 12 7 13 6 3 -7 -7 -8 -9 -19 -5 -23 4 -5 2 -5 -5 -1 -7 4
-16 -7 -24 -29 -7 -19 -17 -35 -22 -35 -4 0 -6 -4 -2 -9 3 -5 1 -12 -5 -16 -6
-4 -8 -10 -5 -15 3 -5 -2 -16 -11 -24 -9 -9 -17 -22 -18 -29 -1 -6 -10 -29
-19 -51 -9 -21 -14 -43 -10 -49 3 -6 1 -7 -5 -3 -7 4 -12 1 -12 -8 0 -9 -5
-16 -11 -16 -5 0 -8 -4 -4 -9 3 -5 -1 -25 -9 -43 -15 -34 -28 -69 -30 -78 -1
-3 -5 -11 -9 -17 -5 -7 -5 -13 0 -13 4 0 3 -4 -4 -8 -6 -4 -13 -22 -16 -40 -3
-18 -11 -40 -17 -48 -7 -7 -9 -14 -5 -14 4 0 3 -6 -2 -12 -6 -7 -9 -21 -8 -31
2 -9 -1 -15 -6 -11 -5 3 -9 -3 -10 -13 -1 -21 -1 -22 -30 -123 -12 -41 -24
-77 -28 -80 -3 -3 -7 -14 -8 -25 -1 -11 -5 -33 -8 -50 -4 -16 -8 -40 -9 -52
-1 -12 -7 -28 -13 -35 -6 -7 -9 -21 -8 -30 2 -10 -1 -20 -5 -23 -5 -3 -6 -13
-3 -22 4 -11 2 -14 -5 -9 -7 4 -10 -1 -7 -15 3 -12 1 -27 -2 -33 -4 -5 -8 -26
-10 -46 -2 -19 -7 -36 -11 -37 -4 -2 -7 -21 -6 -43 0 -22 -4 -40 -9 -40 -5 0
-7 -7 -3 -15 3 -8 2 -15 -2 -15 -4 0 -8 -19 -10 -41 -1 -23 -7 -51 -13 -61 -8
-15 -8 -19 1 -13 7 4 5 -6 -4 -24 -13 -23 -13 -31 -4 -31 8 0 9 -3 3 -8 -9 -6
-13 -26 -17 -89 -1 -13 -5 -23 -8 -23 -3 0 -5 -12 -5 -27 1 -16 -3 -36 -7 -45
-6 -12 -5 -18 4 -18 9 0 10 -2 1 -8 -6 -4 -12 -25 -14 -47 -2 -22 -8 -43 -14
-47 -6 -5 -5 -8 3 -8 10 0 10 -5 2 -20 -8 -15 -8 -20 1 -20 8 0 8 -4 2 -12 -6
-7 -11 -20 -11 -28 -6 -71 -8 -86 -14 -95 -4 -6 -3 -17 2 -25 5 -9 5 -19 -2
-27 -6 -7 -7 -13 -2 -13 5 0 2 -5 -6 -10 -11 -7 -11 -10 -2 -10 9 0 10 -6 5
-17 -5 -10 -8 -27 -8 -38 1 -11 -3 -26 -8 -32 -6 -8 -6 -13 0 -13 5 0 10 -7
10 -15 0 -8 -3 -12 -7 -10 -3 2 -6 -21 -7 -50 0 -30 -4 -70 -7 -90 -5 -24 -4
-35 3 -31 6 4 5 -4 -2 -17 -7 -12 -12 -60 -12 -105 0 -45 -2 -82 -5 -82 -3 0
-5 -24 -5 -52 1 -29 -4 -56 -10 -60 -6 -5 -5 -8 3 -8 7 0 10 -5 7 -11 -11 -16
-12 -119 -3 -125 5 -3 4 -12 -3 -20 -6 -8 -9 -17 -6 -20 3 -3 2 -18 -2 -32 -4
-15 -4 -40 0 -55 5 -21 4 -30 -7 -34 -7 -3 -11 -9 -8 -14 3 -5 11 -6 17 -2 9
5 9 3 1 -8 -5 -8 -9 -27 -9 -44 1 -16 -2 -38 -7 -47 -5 -10 -4 -19 2 -23 5 -3
10 -11 10 -16 0 -6 -5 -7 -11 -3 -8 5 -8 1 0 -13 7 -14 7 -23 -1 -31 -9 -9 -9
-12 1 -12 9 0 10 -4 5 -12 -5 -7 -9 -88 -9 -180 0 -91 -4 -164 -8 -161 -5 3
-5 -3 0 -13 10 -21 10 -55 -1 -72 -3 -6 0 -13 6 -15 10 -4 9 -8 -2 -16 -12 -8
-12 -11 -1 -11 11 0 11 -3 1 -15 -9 -10 -9 -15 -1 -15 13 0 10 -22 -4 -32 -7
-5 -7 -8 0 -8 11 0 11 -72 0 -89 -3 -6 -1 -11 5 -11 8 0 8 -6 0 -20 -8 -14 -8
-20 0 -20 7 0 8 -6 0 -19 -7 -14 -6 -21 3 -24 9 -4 9 -8 -2 -15 -9 -7 -10 -12
-2 -16 8 -5 8 -13 1 -27 -6 -10 -7 -19 -3 -19 9 0 9 -57 0 -66 -3 -4 -3 -14 1
-23 4 -9 7 -140 7 -291 0 -172 4 -278 10 -282 6 -5 6 -8 -2 -8 -8 0 -9 -9 -3
-29 5 -19 4 -33 -3 -40 -8 -8 -8 -11 1 -11 8 0 9 -7 2 -25 -5 -14 -6 -25 -1
-25 10 0 8 -51 -3 -68 -4 -7 -4 -12 1 -12 13 0 12 -134 -1 -142 -8 -6 -8 -8 0
-8 8 0 12 -33 12 -102 0 -57 1 -105 2 -108 1 -3 2 -59 2 -125 0 -73 5 -126 12
-134 8 -11 8 -13 0 -8 -15 9 -14 -85 1 -95 7 -5 7 -8 0 -8 -12 0 -14 -44 -3
-55 4 -4 3 -16 -2 -26 -7 -12 -7 -20 0 -24 6 -4 7 -12 3 -18 -14 -22 -11 -37
5 -38 76 -6 1199 -2 1195 3 -2 5 0 8 6 8 7 0 7 8 1 25 -6 17 -6 25 1 25 6 0 7
5 3 11 -10 16 -11 69 -2 96 4 12 4 25 -1 27 -10 6 -8 37 4 55 5 9 4 12 -2 8
-6 -4 -14 0 -17 9 -3 8 -2 13 3 10 10 -6 8 84 -2 101 -4 6 -4 14 0 16 10 6 9
89 -1 105 -3 6 -2 13 4 17 7 4 7 12 0 25 -7 13 -7 21 0 25 6 4 7 11 4 17 -11
17 -10 78 1 78 6 0 4 4 -3 9 -16 10 -16 9 -3 42 5 15 7 30 3 34 -4 3 -7 31 -9
61 -1 39 2 52 10 47 7 -4 7 0 -1 10 -8 9 -11 20 -8 26 3 5 0 12 -6 14 -10 4
-10 6 -1 6 7 1 10 7 8 14 -3 6 -6 147 -8 313 -2 165 -7 306 -12 314 -5 7 -4
11 1 7 11 -7 11 254 -1 273 -5 7 -4 11 1 8 5 -4 9 92 9 230 0 131 3 256 6 280
3 24 2 42 -4 42 -5 0 -5 6 2 13 8 10 7 17 -1 25 -7 7 -8 12 -3 12 6 0 9 30 9
67 -1 38 3 77 8 87 9 16 7 18 -7 12 -14 -5 -15 -3 -7 6 5 7 9 32 8 56 -1 24 2
45 6 48 4 3 3 14 -2 25 -6 10 -7 19 -2 19 4 0 7 19 7 43 -1 23 2 51 6 63 4 11
3 27 -1 35 -6 8 -4 16 3 21 9 6 9 8 -1 8 -8 0 -10 5 -6 12 5 7 8 37 9 68 1 31
5 61 9 68 4 7 3 12 -2 12 -5 0 -9 7 -9 15 0 8 3 12 6 10 4 -2 7 31 8 72 1 50
6 79 15 84 9 6 8 9 -6 9 -20 0 -20 0 0 15 10 8 13 15 7 15 -7 0 -11 9 -10 22
2 12 1 39 -3 60 -4 21 -3 38 1 38 5 0 8 3 7 8 -1 4 4 19 10 33 6 15 9 35 8 45
-2 11 -1 23 2 28 3 5 7 40 8 76 4 80 6 93 19 102 6 5 5 8 -4 8 -9 0 -10 4 -4
13 6 6 9 24 8 40 -1 15 1 27 4 27 3 0 7 18 8 40 0 22 7 48 15 57 9 12 9 15 1
9 -8 -4 -13 -1 -13 8 0 9 5 16 10 16 7 0 7 6 0 20 -8 15 -8 20 1 20 7 0 9 3 6
7 -4 3 -1 13 6 21 10 13 9 14 -3 7 -12 -7 -13 -6 -3 6 8 10 9 19 3 27 -6 7 -7
9 -3 6 9 -6 34 136 27 148 -3 4 -1 8 3 8 5 0 10 10 11 23 3 36 8 62 14 72 3 6
4 18 3 28 -2 9 0 17 5 17 4 0 8 12 9 28 1 44 4 62 10 62 6 0 10 26 14 77 0 12
5 19 10 16 5 -3 7 3 6 13 -2 11 1 26 6 34 5 8 10 22 10 30 2 38 18 100 26 100
5 0 6 7 3 15 -4 8 -1 15 4 15 6 0 9 9 7 20 -2 11 0 22 4 25 5 2 12 22 16 42 4
21 11 43 16 49 5 6 10 19 13 30 2 10 7 28 10 39 4 11 6 24 6 29 -1 5 2 12 7
15 13 10 36 54 24 46 -6 -3 -2 10 10 29 12 20 18 36 14 36 -3 0 1 7 9 16 9 8
16 24 16 34 0 10 5 22 10 25 6 4 8 10 5 15 -3 4 2 11 10 14 8 3 15 9 14 13 -3
13 25 73 33 73 4 0 8 9 8 20 0 11 5 20 11 20 5 0 15 14 20 30 6 17 15 30 20
30 5 0 9 10 9 22 0 12 3 18 6 15 4 -4 19 13 35 36 16 23 40 55 53 71 14 16 23
34 19 40 -3 6 -3 8 1 4 8 -6 56 34 56 46 0 3 34 39 75 80 41 41 75 72 75 70 0
-3 18 13 40 35 22 22 49 43 60 46 11 4 20 12 20 18 0 12 25 28 63 43 9 3 17
13 17 21 0 8 4 12 10 8 5 -3 18 3 29 14 11 11 21 17 24 15 2 -2 10 2 17 11 7
8 18 15 25 15 7 0 16 7 19 16 4 9 9 14 13 11 3 -4 18 2 32 12 46 33 204 110
213 105 4 -3 8 0 8 5 0 6 7 11 16 11 9 0 12 5 8 12 -4 6 -3 8 4 4 12 -7 62 13
62 26 0 5 5 6 10 3 6 -4 22 1 35 9 14 9 25 14 25 12 0 -3 20 3 45 14 25 11 45
17 45 13 0 -3 6 0 13 6 8 6 17 8 20 4 4 -3 7 -1 7 5 0 7 3 11 8 10 13 -2 66
14 81 26 12 9 13 8 7 -3 -6 -9 -1 -8 16 3 14 9 28 13 31 9 4 -3 7 -2 7 3 0 5
10 11 23 12 37 4 51 7 65 15 6 5 17 5 22 2 6 -3 10 -1 10 5 0 7 6 10 14 7 7
-3 17 -2 22 3 5 4 28 11 52 14 24 3 47 8 51 10 4 3 21 8 37 10 16 3 40 8 54
12 29 6 58 11 83 13 10 0 16 4 14 9 -3 4 11 8 31 9 104 6 122 8 122 14 0 3 16
5 35 4 19 0 35 2 35 5 0 4 12 7 28 8 15 1 43 4 62 7 19 2 60 7 90 10 73 7 83
9 99 19 11 7 12 6 6 -5 -8 -12 -6 -12 8 0 12 9 17 10 17 2 0 -8 5 -9 19 -2 10
6 28 8 40 6 11 -2 21 0 21 4 0 4 18 7 41 6 22 -1 43 3 46 7 2 5 12 3 21 -4 12
-10 14 -10 8 0 -5 9 4 12 33 13 39 1 58 4 64 9 1 1 18 3 37 5 19 1 51 6 70 10
31 6 65 11 125 20 11 1 20 3 20 4 0 2 9 4 20 6 11 2 48 9 82 16 35 6 64 10 65
8 2 -1 13 3 26 10 17 9 22 9 22 -1 0 -10 2 -10 9 0 7 12 45 22 94 25 9 1 17 6
17 11 0 5 3 6 7 3 3 -4 13 -1 21 6 13 10 14 9 7 -3 -7 -12 -6 -13 6 -3 8 6 26
13 39 15 14 2 30 6 35 9 12 8 83 21 88 17 2 -2 11 3 20 10 9 8 21 11 27 7 5
-3 10 -1 10 5 0 7 7 10 15 6 8 -3 15 -1 15 5 0 6 7 9 15 6 8 -4 17 -2 21 4 3
6 12 8 20 5 8 -3 14 -1 14 5 0 6 5 7 10 4 6 -3 10 -1 10 5 0 6 4 9 8 6 5 -3
21 1 36 9 18 10 24 10 20 2 -4 -7 2 -4 13 6 22 19 38 23 27 6 -4 -7 7 -2 24
11 16 12 34 20 40 17 5 -4 18 2 29 13 12 10 23 17 26 14 2 -2 17 1 33 7 16 7
31 13 34 14 27 9 70 28 93 41 15 8 27 12 27 9 0 -3 25 8 56 25 31 17 59 29 61
26 3 -2 13 3 24 12 11 9 23 18 27 18 24 5 52 17 52 24 0 7 33 22 55 24 6 1 18
9 27 19 9 10 20 18 25 18 4 0 35 15 68 34 33 20 63 34 67 33 4 -2 15 7 23 20
9 12 21 20 26 17 5 -4 9 -2 9 4 0 5 10 13 23 17 12 4 29 15 38 25 9 11 21 19
28 19 6 0 11 5 11 10 0 6 6 10 13 10 7 0 30 15 52 34 22 19 41 33 44 31 2 -2
20 13 39 33 20 20 38 35 40 34 3 -3 92 70 127 105 7 7 15 9 19 6 3 -4 6 1 6
10 0 9 7 17 16 17 8 0 13 3 11 8 -3 4 1 13 9 20 8 7 14 10 14 7 0 -2 14 9 30
27 17 17 30 36 30 41 0 6 3 8 6 5 3 -3 20 10 37 29 18 19 51 54 74 79 23 24
39 44 35 44 -3 0 4 7 16 16 12 8 20 20 17 25 -4 5 2 9 11 9 10 0 15 3 11 6 -3
3 8 19 24 35 16 15 29 32 29 36 0 4 13 22 30 40 16 17 31 37 32 44 4 18 22 38
29 33 4 -2 10 7 13 21 4 14 11 25 16 25 6 0 10 6 10 13 0 7 9 23 20 35 12 12
17 22 13 22 -4 0 0 5 10 11 9 6 15 14 12 20 -4 5 -1 9 4 9 6 0 11 6 11 13 0 8
9 22 20 32 11 10 17 21 15 25 -3 4 2 13 10 20 8 7 15 18 15 25 0 8 3 15 8 17
4 2 18 26 31 53 13 28 33 62 43 78 11 15 16 27 13 27 -3 0 3 13 14 29 11 15
18 31 14 35 -3 3 -1 6 6 6 7 0 10 4 6 9 -3 5 2 17 11 25 8 9 12 16 8 16 -5 0
-3 5 4 12 7 7 12 20 12 30 0 10 5 18 10 18 6 0 10 9 10 20 0 11 5 20 12 20 6
0 8 3 5 7 -4 3 -2 12 4 20 6 7 9 13 5 13 -4 0 3 19 15 41 11 23 22 50 24 61 3
12 13 37 23 57 10 20 17 46 16 58 -1 12 2 20 6 18 7 -5 18 24 27 69 2 11 9 26
16 35 10 12 9 13 -3 6 -12 -7 -13 -6 -3 6 9 11 38 95 49 142 1 4 3 10 4 15 1
4 2 10 1 15 0 4 3 7 8 7 4 0 8 8 8 18 0 41 4 53 14 46 8 -4 8 0 0 15 -8 15 -9
21 -1 21 6 0 8 5 5 10 -3 6 -1 10 5 10 6 0 9 4 6 9 -4 5 -2 20 3 33 5 14 12
42 15 63 4 21 12 45 19 54 9 12 9 13 0 7 -7 -4 -13 -2 -13 3 0 6 4 11 10 11 5
0 8 10 6 23 -2 12 0 27 5 33 5 6 10 24 11 40 1 16 5 34 8 39 4 6 7 22 6 38 -1
15 1 27 5 27 3 0 6 15 6 33 0 17 4 40 8 50 4 10 8 33 8 52 1 19 4 35 7 35 3 0
7 10 8 23 0 12 2 41 4 64 2 24 5 43 9 43 3 0 5 10 6 23 2 62 11 138 16 143 4
4 1 16 -5 27 -8 16 -7 19 3 15 11 -4 14 8 13 59 0 35 4 67 9 70 5 3 3 9 -4 14
-8 5 -9 9 -3 9 6 0 10 19 9 45 0 25 2 45 5 45 3 0 6 24 6 53 4 139 8 187 16
187 5 0 6 5 2 12 -8 13 -12 68 -4 68 3 0 5 42 5 93 0 52 4 95 10 99 6 5 5 8
-3 8 -9 0 -10 5 -3 18 7 13 6 23 -1 30 -8 8 -8 12 -2 12 6 0 11 7 11 15 0 8
-5 15 -10 15 -5 0 -4 7 3 15 9 11 9 15 1 15 -7 0 -9 5 -4 13 12 20 12 37 0 37
-8 0 -8 3 -2 8 6 4 11 21 11 37 0 17 -5 33 -11 37 -7 5 -6 8 1 8 12 0 12 29
-1 49 -5 9 -4 12 1 8 6 -3 10 16 10 48 0 32 -4 51 -10 48 -5 -4 -6 -1 0 8 13
21 14 70 2 63 -7 -5 -8 -2 -2 7 13 21 13 89 0 89 -7 0 -7 3 -1 8 14 10 17 65
3 56 -7 -5 -8 -2 -2 7 12 21 14 90 1 82 -6 -4 -7 -1 -1 8 13 21 14 70 2 63 -7
-5 -8 -2 -2 7 13 21 13 89 0 89 -7 0 -7 3 -1 8 13 10 17 104 3 96 -5 -4 -5 4
2 16 10 18 9 24 -1 31 -8 5 -9 9 -4 9 13 0 14 83 0 92 -6 5 -6 8 0 8 14 0 15
50 1 50 -7 0 -7 3 -1 8 14 10 14 85 1 94 -7 5 -7 8 -1 8 14 0 15 50 1 50 -7 0
-7 3 -1 8 14 10 14 85 1 94 -7 5 -7 8 -1 8 14 0 15 50 1 50 -7 0 -7 3 -1 8 14
10 14 85 1 94 -7 5 -7 8 -1 8 14 0 15 50 1 50 -7 0 -7 3 -1 8 13 9 14 85 1 94
-8 5 -7 8 0 8 14 0 13 42 -1 52 -6 5 -6 8 1 8 12 0 12 29 0 48 -4 7 -2 12 4
12 13 0 9 32 -5 42 -6 5 -5 8 3 8 10 0 10 5 1 21 -7 13 -7 19 -1 15 6 -4 10 2
9 14 -1 11 -5 20 -10 20 -4 0 -5 6 0 13 11 18 12 36 2 43 -5 3 -6 11 -2 17 11
18 12 36 2 43 -5 3 -6 11 -2 17 11 18 10 67 -1 67 -7 0 -8 3 -1 8 14 10 17 32
4 32 -6 0 -7 5 -2 13 11 17 10 31 -2 39 -6 5 -5 8 3 8 9 0 10 5 2 19 -7 14 -7
22 0 26 8 5 8 11 1 19 -6 7 -8 16 -5 19 12 12 12 57 1 57 -8 0 -7 3 1 9 8 4
14 12 14 16 0 4 -6 12 -14 16 -7 5 -8 9 -2 9 6 0 11 7 11 15 0 8 -5 15 -11 15
-6 0 -6 4 2 12 7 7 8 17 1 30 -6 12 -6 18 1 18 12 0 9 22 -5 32 -6 5 -6 8 1 8
12 0 12 49 0 68 -3 6 -2 14 4 17 8 5 7 11 -1 21 -9 11 -9 14 1 14 9 0 10 3 1
13 -8 10 -7 17 1 25 9 9 9 12 -1 12 -11 0 -11 3 -1 15 10 12 10 15 0 15 -10 0
-10 3 -1 14 9 10 9 16 1 21 -7 4 -8 11 -1 18 15 19 15 21 3 44 -9 16 -9 24 -1
29 8 4 7 9 -2 15 -11 7 -11 9 1 9 13 0 13 1 0 10 -11 7 -11 10 -2 10 9 0 10 5
3 17 -5 10 -5 26 0 40 6 16 5 23 -4 23 -8 0 -8 3 -2 8 6 4 11 14 10 22 0 13
-73 15 -599 15 -496 0 -601 -2 -613 -13z"/>
<path d="M7588 16042 c-22 -3 -26 -7 -22 -28 3 -18 1 -23 -7 -18 -9 5 -9 3 -3
-7 13 -20 13 -179 0 -171 -8 4 -7 1 0 -9 15 -20 15 -59 1 -59 -8 0 -8 -3 -2
-8 14 -10 15 -163 1 -155 -6 4 -6 0 1 -8 10 -12 10 -18 0 -29 -9 -10 -9 -11 1
-6 6 4 12 3 12 -1 0 -5 -6 -15 -12 -22 -7 -8 -8 -11 -2 -8 14 8 14 -95 -1
-105 -6 -5 -4 -8 5 -8 13 0 13 -1 0 -10 -10 -6 -11 -10 -3 -10 14 0 13 -26 -1
-49 -6 -9 -5 -12 2 -7 7 4 10 -4 10 -24 -1 -16 -6 -30 -12 -30 -7 0 -7 -3 -1
-8 14 -10 15 -155 1 -164 -7 -5 -7 -8 -1 -8 6 0 11 -13 11 -30 1 -20 -2 -27
-10 -23 -8 5 -8 3 0 -8 14 -17 13 -177 0 -198 -6 -9 -5 -12 1 -8 7 5 11 -26
10 -93 0 -64 -4 -100 -11 -100 -8 0 -7 -3 0 -8 7 -4 12 -38 12 -82 0 -294 6
-497 16 -509 8 -11 8 -13 -2 -7 -9 6 -11 -9 -8 -63 5 -83 10 -94 39 -85 32 10
79 12 103 3 11 -4 27 -3 34 1 9 5 20 4 27 -2 9 -7 13 -7 13 0 0 6 10 9 23 6
12 -3 27 -5 32 -5 6 0 30 1 55 1 25 0 61 0 80 0 19 0 42 3 52 6 9 3 19 1 22
-4 2 -4 20 -7 38 -5 31 4 42 4 71 2 6 0 29 1 49 3 21 3 43 1 49 -3 6 -3 25 -3
43 1 18 4 41 4 52 -1 12 -4 27 -3 35 1 8 5 19 4 26 -2 9 -7 13 -7 13 0 0 6 10
9 23 6 12 -3 27 -5 32 -5 6 0 30 1 55 1 25 0 61 0 80 0 19 0 42 3 52 6 9 3 19
1 22 -4 2 -4 20 -7 38 -5 18 2 39 4 46 3 26 0 38 -1 77 0 22 0 64 0 93 0 28 0
58 1 65 1 6 0 30 0 52 0 81 -2 94 -1 172 2 23 2 39 -1 36 -6 -3 -5 5 -6 18 -1
13 4 40 6 59 5 37 -1 68 -1 110 3 14 1 33 -2 44 -7 13 -6 16 -6 12 2 -4 6 -3
11 3 11 5 0 12 -4 16 -10 3 -6 15 -6 30 0 16 6 25 5 29 -3 3 -9 5 -9 5 1 1 9
6 10 20 2 14 -7 21 -6 24 3 4 9 6 9 6 -1 1 -7 5 -10 11 -7 14 9 114 10 127 2
6 -4 14 -1 16 5 3 8 6 9 6 2 1 -8 12 -9 34 -5 17 4 49 4 69 1 20 -4 42 -4 48
0 6 4 28 4 49 0 20 -4 46 -3 57 0 10 4 26 4 35 -1 9 -5 19 -6 21 -3 10 9 117
10 111 1 -3 -5 5 -6 18 -1 13 4 40 6 59 5 37 -1 68 -1 110 3 14 1 33 -2 44 -7
13 -6 16 -6 12 2 -4 6 -3 11 3 11 5 0 12 -4 16 -10 3 -6 15 -6 30 0 16 6 25 5
29 -3 3 -9 5 -9 5 1 1 9 6 10 20 2 14 -7 21 -6 24 3 4 9 6 9 6 -1 1 -7 5 -10
11 -7 14 9 114 10 127 2 6 -4 14 -1 16 5 3 8 6 9 6 2 1 -8 12 -9 34 -5 17 4
49 4 69 1 20 -4 42 -4 48 0 6 4 28 4 49 0 20 -4 46 -3 57 0 10 4 26 4 35 -1 9
-5 19 -6 21 -3 10 9 117 10 111 1 -3 -5 5 -6 18 -1 13 4 40 6 59 5 37 -1 68
-1 110 3 14 1 33 -2 44 -7 13 -6 16 -6 12 2 -4 6 -3 11 3 11 5 0 12 -4 16 -10
4 -6 15 -6 30 0 18 7 25 6 25 -2 0 -9 3 -9 11 -1 7 7 20 8 34 3 12 -4 28 -4
35 0 9 5 20 4 27 -2 9 -7 13 -7 13 0 0 6 10 9 23 6 12 -3 27 -5 32 -5 6 0 30
1 55 1 25 0 61 0 80 0 19 0 42 3 52 6 9 3 19 1 22 -4 2 -4 20 -7 38 -5 31 4
42 4 71 2 6 0 29 1 49 3 21 3 43 1 49 -3 6 -3 25 -3 43 1 18 4 41 4 52 -1 12
-4 27 -3 35 1 8 5 19 4 26 -2 9 -7 13 -7 13 0 0 6 10 9 23 6 12 -3 29 -5 37
-5 8 1 31 1 51 1 24 0 39 6 43 16 4 10 2 13 -6 8 -7 -5 -8 -3 -2 7 12 21 13
79 0 79 -8 0 -8 3 -1 8 13 8 13 3 16 360 1 198 5 282 13 282 8 0 8 2 0 8 -15
10 -15 132 0 132 7 0 8 3 1 8 -14 9 -16 194 -2 185 6 -4 7 -1 1 8 -13 20 -13
119 0 119 7 0 8 3 1 8 -14 10 -15 123 -1 115 6 -4 5 1 -3 10 -11 14 -11 17 0
17 9 0 10 3 3 8 -12 8 -13 76 -1 88 4 4 7 12 7 18 0 6 -4 5 -9 -3 -5 -8 -8 9
-7 45 0 33 5 62 11 66 6 5 4 8 -5 8 -13 0 -13 1 0 10 10 6 11 10 3 10 -14 0
-13 26 1 49 6 10 5 12 -2 7 -15 -9 -12 46 3 56 7 5 7 8 -1 8 -12 0 -12 69 1
89 5 10 4 12 -3 7 -15 -9 -12 46 3 56 7 5 7 8 0 8 -12 0 -14 115 -2 126 4 4 7
12 7 18 0 6 -4 5 -9 -3 -6 -10 -9 2 -9 35 2 92 3 89 -46 88 -24 -1 -49 -5 -56
-9 -9 -5 -11 -4 -6 4 6 8 -1 10 -25 6 -18 -3 -36 -8 -40 -11 -4 -2 -10 0 -13
5 -6 9 -50 6 -67 -5 -4 -2 -10 0 -13 5 -6 9 -50 6 -67 -5 -4 -2 -10 0 -13 5
-6 9 -50 6 -67 -5 -4 -2 -10 0 -13 5 -6 9 -50 6 -67 -5 -4 -2 -10 0 -13 5 -6
9 -50 6 -67 -5 -4 -2 -10 0 -13 5 -6 9 -50 6 -67 -5 -4 -2 -10 0 -13 5 -6 9
-50 6 -67 -5 -4 -2 -10 0 -13 5 -6 9 -50 6 -67 -5 -4 -2 -10 -1 -13 4 -6 10
-68 8 -84 -2 -7 -4 -12 -3 -12 2 0 8 -63 7 -87 -2 -7 -3 -14 -2 -17 2 -6 10
-131 7 -147 -3 -7 -5 -10 -4 -6 1 3 5 -22 8 -56 6 -68 -2 -92 -2 -122 2 -11 1
-26 -2 -32 -7 -8 -6 -13 -6 -13 0 0 9 -62 8 -87 -1 -7 -3 -14 -2 -17 2 -6 10
-131 7 -147 -3 -7 -5 -10 -4 -6 1 3 5 -22 8 -56 6 -68 -2 -92 -2 -122 2 -11 1
-26 -2 -32 -7 -8 -6 -13 -6 -13 0 0 9 -62 8 -87 -1 -7 -3 -14 -2 -17 2 -6 10
-131 7 -147 -3 -7 -5 -10 -4 -6 1 3 5 -22 8 -56 6 -68 -2 -92 -2 -122 2 -11 1
-26 -2 -32 -7 -8 -6 -13 -6 -13 0 0 9 -62 8 -87 -1 -7 -3 -14 -2 -17 2 -6 10
-131 7 -147 -3 -7 -5 -10 -4 -6 1 3 5 -22 8 -56 6 -68 -2 -92 -2 -122 2 -11 1
-26 -2 -32 -7 -8 -6 -13 -6 -13 0 0 9 -62 8 -87 -1 -7 -3 -14 -2 -17 2 -6 10
-131 7 -147 -3 -7 -5 -10 -4 -6 1 7 11 -95 10 -113 -1 -7 -5 -11 -4 -7 1 4 8
-77 11 -108 4 -5 -1 -14 -1 -20 0 -25 6 -41 4 -47 -5 -5 -7 -8 -7 -8 0 0 11
-110 12 -128 1 -6 -3 -13 -2 -16 3 -6 9 -50 6 -67 -5 -4 -2 -10 0 -13 5 -6 9
-50 6 -67 -5 -4 -2 -10 0 -13 5 -6 9 -50 6 -67 -5 -4 -2 -10 0 -13 5 -6 9 -50
6 -67 -5 -4 -2 -10 0 -13 5 -6 9 -50 6 -67 -5 -4 -2 -10 0 -13 5 -6 9 -50 6
-67 -5 -4 -2 -10 0 -13 5 -6 9 -50 6 -67 -5 -4 -2 -10 0 -13 5 -6 9 -50 6 -67
-5 -4 -2 -10 0 -13 5 -6 9 -50 6 -67 -5 -4 -2 -10 0 -13 5 -6 9 -50 6 -67 -5
-4 -2 -10 0 -13 5 -6 9 -50 6 -67 -5 -4 -2 -10 0 -13 5 -6 9 -50 6 -67 -5 -4
-2 -10 0 -13 5 -6 9 -50 6 -67 -5 -4 -2 -10 0 -13 5 -6 9 -50 6 -67 -5 -4 -2
-10 -1 -13 4 -6 10 -68 8 -84 -2 -7 -4 -12 -4 -12 1 0 8 -35 10 -82 5z"/>
<path d="M7603 13515 c-9 -10 -9 -16 -2 -20 6 -4 8 -13 5 -20 -3 -8 0 -16 7
-19 8 -3 9 -5 1 -5 -8 -1 -9 -12 -4 -34 4 -18 6 -45 4 -60 -1 -15 1 -27 5 -27
4 0 7 -15 6 -32 -1 -18 0 -37 3 -43 4 -5 6 -28 7 -50 0 -22 4 -46 8 -52 5 -7
6 -13 2 -13 -3 0 -1 -10 6 -21 8 -15 8 -19 0 -15 -6 4 -11 2 -11 -3 0 -6 4
-11 9 -11 5 0 8 -11 6 -25 -1 -14 2 -28 7 -31 5 -3 5 -11 -2 -19 -7 -9 -6 -16
4 -24 8 -7 12 -19 9 -27 -3 -8 1 -22 8 -31 12 -14 12 -15 1 -9 -11 7 -12 4 -3
-11 5 -11 12 -35 14 -54 2 -19 8 -42 12 -51 4 -9 4 -21 1 -27 -4 -5 -2 -12 4
-16 6 -4 8 -11 5 -16 -4 -5 -2 -9 2 -9 5 0 9 -8 9 -17 1 -10 5 -27 9 -37 6
-15 5 -17 -5 -11 -9 5 -7 0 3 -16 9 -13 17 -33 17 -46 0 -12 4 -24 9 -27 5 -4
8 -17 6 -31 -1 -17 3 -25 14 -26 10 0 11 -3 4 -6 -9 -3 -9 -10 -3 -24 6 -10
15 -28 20 -39 6 -12 8 -25 5 -30 -3 -5 -1 -11 5 -15 6 -4 8 -11 5 -16 -4 -5
-2 -9 3 -9 5 0 9 -6 9 -12 1 -15 26 -81 33 -88 7 -7 13 -31 14 -52 0 -9 2 -15
5 -12 6 5 46 -78 43 -88 -1 -5 3 -8 8 -8 5 0 10 -3 9 -7 -2 -16 14 -53 22 -53
5 0 9 -9 9 -20 0 -11 5 -20 10 -20 6 0 10 -5 10 -11 0 -6 14 -30 30 -54 17
-24 30 -48 30 -53 0 -4 11 -19 25 -32 13 -12 23 -26 20 -30 -2 -3 5 -13 16
-20 10 -8 19 -19 19 -25 0 -5 16 -26 35 -46 19 -20 31 -39 28 -43 -4 -3 1 -6
10 -6 9 0 24 -13 33 -29 10 -17 21 -28 26 -25 4 3 8 -2 8 -10 0 -9 6 -16 14
-16 8 0 18 -9 21 -21 4 -11 9 -18 12 -15 3 3 18 -7 33 -22 14 -15 43 -38 63
-52 20 -14 37 -29 37 -33 0 -5 5 -5 10 -2 6 3 10 -1 10 -9 0 -9 3 -15 8 -14
11 3 112 -64 112 -73 0 -5 3 -8 8 -7 13 4 52 -13 52 -23 0 -5 7 -9 15 -9 8 0
15 -4 15 -10 0 -5 7 -7 15 -4 8 4 15 1 15 -4 0 -11 38 -28 53 -24 4 1 7 -2 7
-8 0 -5 7 -10 15 -10 9 0 18 -7 21 -15 4 -8 10 -12 15 -10 5 3 21 -1 37 -9 16
-8 32 -12 36 -9 3 4 6 1 6 -5 0 -7 3 -11 8 -10 7 2 63 -23 72 -32 5 -5 26 -9
58 -12 6 -1 12 -5 12 -10 0 -4 10 -8 23 -8 13 0 27 -4 32 -9 6 -4 33 -14 60
-21 28 -7 56 -18 64 -24 12 -9 13 -8 6 4 -7 12 -6 13 6 4 13 -10 45 -21 94
-31 11 -3 25 -6 30 -7 6 -1 21 -8 34 -15 18 -10 22 -10 16 0 -6 8 -4 10 6 4 7
-5 23 -11 34 -12 11 -2 34 -6 50 -9 17 -3 36 -5 43 -6 6 -1 12 -5 12 -9 0 -4
8 -6 18 -4 9 1 21 0 27 -3 5 -3 16 -7 25 -8 62 -10 108 -16 123 -16 9 1 17 -5
17 -11 0 -7 4 -6 10 3 5 8 10 10 10 3 0 -6 8 -10 18 -8 9 1 23 -2 30 -8 8 -6
12 -6 12 3 0 9 4 9 13 3 6 -6 19 -11 27 -11 8 0 48 -3 89 -7 56 -5 72 -4 66 5
-6 9 -3 9 13 1 12 -6 23 -7 26 -2 3 5 16 7 28 3 11 -3 19 -1 16 4 -4 5 13 10
35 10 23 1 62 5 87 9 25 4 55 8 67 8 12 1 20 4 17 8 -2 4 9 7 24 7 30 0 72 9
80 17 3 2 12 -1 20 -8 13 -9 14 -9 8 1 -5 8 0 12 13 13 33 2 39 4 46 11 4 4
13 4 21 1 8 -3 14 -1 14 4 0 5 15 9 33 8 17 0 41 5 52 11 11 7 28 10 38 9 9
-2 15 1 11 6 -3 5 6 9 20 9 14 0 26 4 26 8 0 5 14 8 30 7 17 -1 30 2 30 7 0 5
4 7 9 3 5 -3 15 1 23 8 7 8 19 12 26 9 7 -2 19 1 27 8 8 6 18 9 24 6 5 -3 11
-1 13 4 2 6 16 13 31 15 15 3 42 14 61 24 19 11 37 17 40 14 3 -4 6 -2 6 4 0
5 6 10 13 11 31 2 49 9 57 21 4 8 13 10 19 7 6 -4 11 -2 11 5 0 7 3 9 6 6 4
-4 20 3 37 15 19 13 28 16 23 7 -4 -7 -1 -6 7 3 8 10 17 15 20 11 4 -3 7 -2 7
3 0 6 20 18 45 28 25 11 45 23 45 28 0 5 5 6 10 3 6 -3 10 -2 10 3 0 5 15 17
33 25 34 17 65 38 102 72 12 11 29 21 36 23 8 2 21 10 29 18 8 7 27 25 42 39
15 14 30 25 34 25 3 0 15 11 26 25 11 14 24 23 29 20 5 -4 9 -1 9 4 0 16 32
51 42 45 4 -3 8 2 8 10 0 8 9 21 20 29 11 8 17 16 14 19 -3 4 4 9 15 13 12 3
21 13 21 21 0 8 5 14 12 14 6 0 8 3 5 7 -4 3 2 12 12 20 11 7 34 36 52 63 18
28 36 50 41 50 4 0 7 6 5 13 -1 6 4 11 11 9 8 -1 11 2 8 7 -4 5 7 30 24 54 16
25 30 50 30 56 0 6 5 11 11 11 6 0 9 6 6 14 -3 8 1 17 9 20 9 3 12 10 9 16 -3
5 -2 10 2 10 9 0 37 59 34 73 0 4 4 7 10 7 5 0 8 4 4 9 -3 5 0 15 7 23 7 7 14
20 16 28 2 8 11 30 19 49 9 18 16 39 16 47 0 8 4 14 9 14 5 0 6 5 3 10 -3 6
-2 10 3 10 6 0 9 6 9 13 -2 18 36 137 44 137 4 0 6 11 4 25 -1 14 2 25 7 25 6
0 8 6 5 14 -3 8 -3 17 1 20 6 7 10 22 17 63 6 37 17 68 29 75 8 5 7 8 -2 8 -9
0 -10 5 -3 18 5 9 9 20 10 25 1 4 2 9 2 12 1 3 2 13 3 23 1 9 5 23 9 30 5 7 3
12 -5 12 -8 0 -9 3 -3 8 10 7 15 20 20 62 1 14 4 25 5 25 2 0 8 51 11 95 1 8
6 21 12 28 6 8 6 12 -3 12 -8 0 -9 4 -3 13 5 6 11 30 12 52 2 22 5 56 7 75 2
19 6 52 7 72 2 21 7 41 10 45 4 3 2 12 -4 20 -8 9 -8 13 -1 13 6 0 9 10 7 22
-3 12 1 26 8 30 8 5 8 8 1 8 -6 0 -10 11 -9 24 3 24 -8 28 -32 13 -7 -5 -13
-4 -13 0 0 5 -13 9 -30 8 -16 0 -30 -4 -30 -9 0 -5 -6 -4 -12 1 -15 11 -58 11
-75 0 -7 -5 -13 -4 -13 2 0 5 -10 7 -22 5 -13 -3 -27 -5 -33 -5 -66 6 -82 6
-92 -2 -8 -6 -13 -6 -13 0 0 11 -50 10 -68 -1 -7 -4 -12 -3 -12 2 0 10 -61 9
-78 -2 -6 -3 -13 -2 -17 4 -4 6 -12 7 -24 1 -9 -5 -23 -6 -29 -2 -15 9 -63 8
-80 -3 -7 -4 -12 -3 -12 2 0 10 -50 9 -68 -2 -7 -4 -12 -3 -12 2 0 7 -47 9
-75 2 -5 -1 -14 -1 -20 0 -25 6 -41 4 -47 -5 -5 -6 -8 -6 -8 2 0 7 -9 10 -22
7 -13 -3 -27 -5 -33 -5 -5 0 -29 2 -53 4 -23 2 -45 0 -48 -5 -3 -4 -10 -5 -17
-1 -16 10 -57 10 -57 0 0 -4 -6 -5 -12 0 -18 11 -58 12 -58 1 0 -5 -6 -6 -12
-1 -18 10 -78 11 -84 1 -3 -5 -10 -5 -17 -1 -17 11 -57 10 -57 -2 0 -6 -3 -6
-8 1 -4 6 -16 9 -27 7 -22 -5 -23 -5 -83 0 -23 2 -45 0 -48 -5 -3 -4 -10 -5
-17 -1 -16 10 -57 10 -57 0 0 -4 -6 -5 -12 0 -18 11 -58 12 -58 1 0 -5 -6 -6
-12 -1 -18 10 -78 11 -84 1 -3 -5 -10 -5 -17 -1 -17 11 -57 10 -57 -2 0 -6 -3
-6 -8 1 -4 6 -16 9 -27 7 -22 -5 -23 -5 -83 0 -23 2 -45 0 -48 -5 -3 -4 -10
-5 -17 -1 -16 10 -57 10 -57 0 0 -4 -6 -5 -12 0 -18 11 -58 12 -58 1 0 -5 -6
-6 -12 -1 -18 10 -78 11 -84 1 -3 -5 -10 -5 -17 -1 -17 11 -57 10 -57 -2 0 -6
-3 -6 -8 1 -4 6 -16 9 -27 7 -22 -5 -23 -5 -83 0 -23 2 -45 0 -48 -5 -3 -4
-10 -5 -17 -1 -16 10 -57 10 -57 0 0 -4 -6 -5 -12 0 -18 11 -58 12 -58 1 0 -5
-6 -6 -12 -1 -18 10 -78 11 -84 1 -3 -5 -10 -5 -17 -1 -17 11 -57 10 -57 -2 0
-6 -3 -6 -8 1 -4 6 -16 9 -27 7 -22 -5 -23 -5 -83 0 -23 2 -45 0 -48 -5 -3 -4
-10 -5 -17 -1 -16 10 -57 10 -57 0 0 -4 -6 -5 -12 0 -18 11 -58 12 -58 1 0 -5
-6 -6 -12 -1 -18 10 -78 11 -84 1 -3 -5 -10 -5 -17 -1 -17 11 -57 10 -57 -2 0
-6 -3 -6 -8 1 -4 6 -16 9 -27 7 -11 -2 -26 -4 -32 -3 -25 1 -58 2 -78 1 -11
-1 -36 0 -55 2 -19 2 -41 -1 -47 -6 -8 -6 -13 -6 -13 0 0 11 -50 10 -68 -1 -7
-4 -12 -3 -12 2 0 10 -61 9 -78 -2 -6 -3 -13 -2 -17 4 -4 6 -12 7 -24 1 -9 -5
-23 -6 -29 -2 -15 9 -63 8 -80 -3 -7 -4 -12 -3 -12 2 0 10 -50 9 -68 -2 -7 -4
-12 -3 -12 2 0 10 -61 9 -78 -2 -6 -3 -13 -2 -17 4 -4 6 -12 7 -24 1 -9 -5
-23 -6 -29 -2 -15 9 -63 8 -80 -3 -7 -4 -12 -3 -12 2 0 10 -50 9 -68 -2 -7 -4
-12 -3 -12 2 0 10 -61 9 -78 -2 -6 -3 -13 -2 -17 4 -4 6 -12 7 -24 1 -9 -5
-23 -6 -29 -2 -15 9 -63 8 -80 -3 -7 -4 -12 -3 -12 2 0 10 -50 9 -68 -2 -7 -4
-12 -3 -12 2 0 10 -61 9 -78 -2 -6 -3 -13 -2 -17 4 -6 10 -40 9 -51 -3 -4 -4
-12 -3 -18 2 -7 6 -16 4 -23 -4z"/>
<path d="M12436 9763 c-3 -7 -12 -13 -21 -13 -8 0 -15 -4 -15 -10 0 -5 -7 -10
-15 -10 -9 0 -18 -7 -21 -15 -4 -8 -10 -12 -16 -9 -5 3 -17 0 -26 -8 -34 -28
-104 -69 -96 -57 4 8 -5 4 -20 -9 -16 -12 -32 -20 -36 -17 -4 3 -10 -2 -14
-10 -3 -8 -15 -15 -26 -15 -11 0 -20 -4 -20 -10 0 -5 -8 -10 -17 -10 -10 0
-27 -7 -37 -15 -10 -8 -24 -12 -30 -8 -6 3 -8 3 -4 -2 7 -8 -93 -56 -119 -58
-7 0 -13 -4 -13 -9 0 -5 -4 -6 -10 -3 -5 3 -10 1 -10 -4 0 -6 -9 -11 -20 -11
-11 0 -20 -5 -20 -11 0 -5 -4 -8 -8 -5 -5 3 -21 -1 -35 -9 -15 -8 -31 -15 -35
-16 -4 -1 -18 -5 -30 -10 -13 -5 -28 -6 -34 -3 -7 4 -8 2 -4 -4 4 -7 2 -12 -3
-12 -6 0 -13 0 -16 0 -3 0 -25 -9 -49 -20 -24 -10 -47 -16 -50 -13 -3 4 -6 0
-6 -7 0 -7 -3 -11 -6 -7 -4 3 -22 0 -40 -8 -19 -8 -34 -11 -34 -8 0 3 -7 0
-15 -7 -8 -7 -15 -9 -15 -6 0 4 -10 1 -22 -6 -21 -11 -35 -15 -75 -20 -7 -1
-13 -6 -13 -11 0 -6 -3 -8 -6 -4 -3 3 -23 -1 -45 -8 -21 -8 -39 -12 -39 -8 0
3 -6 0 -13 -6 -8 -6 -17 -8 -20 -4 -4 3 -12 1 -19 -5 -7 -6 -16 -11 -20 -11
-5 -1 -9 -1 -10 -2 -2 0 -16 -2 -32 -4 -16 -2 -36 -7 -45 -11 -15 -6 -40 -12
-68 -16 -27 -3 -11 -17 40 -34 28 -10 54 -19 57 -19 40 -10 60 -19 60 -27 0
-5 5 -6 10 -3 6 3 10 1 10 -4 0 -6 3 -10 8 -10 18 4 74 -15 78 -25 3 -7 14
-12 25 -13 12 -1 31 -10 42 -20 14 -12 18 -13 12 -3 -7 13 -5 13 11 -1 10 -8
46 -29 79 -45 33 -16 62 -32 63 -36 2 -5 8 -8 14 -8 5 0 16 -7 25 -15 8 -8 19
-13 24 -10 5 4 9 2 9 -2 0 -5 18 -19 40 -33 22 -14 40 -28 40 -32 0 -5 6 -8
13 -8 7 0 23 -9 35 -20 12 -11 24 -20 28 -20 4 0 17 -11 30 -26 13 -14 24 -21
24 -17 1 4 10 -3 20 -16 11 -13 20 -19 20 -15 0 5 9 -4 20 -21 11 -17 20 -24
20 -15 1 13 2 13 9 0 16 -27 120 -130 131 -130 6 0 9 -4 6 -9 -3 -5 6 -17 19
-27 14 -10 25 -25 25 -32 0 -7 5 -10 10 -7 6 3 10 0 10 -7 0 -8 9 -20 20 -28
11 -8 20 -20 20 -26 0 -7 7 -15 16 -18 8 -3 13 -10 10 -14 -3 -5 4 -15 15 -22
10 -8 19 -18 19 -23 0 -4 9 -17 20 -29 10 -12 17 -25 14 -30 -3 -4 0 -8 6 -8
5 0 18 -16 27 -35 9 -19 19 -32 23 -30 4 2 7 -1 7 -8 0 -7 24 -52 52 -100 28
-48 51 -94 51 -101 0 -7 9 -22 20 -34 12 -12 16 -22 10 -22 -6 0 -4 -7 4 -16
9 -8 14 -20 11 -25 -4 -5 -1 -9 4 -9 6 0 10 -3 10 -7 -1 -5 4 -24 12 -43 7
-19 12 -38 11 -42 -1 -5 2 -8 7 -8 9 0 37 -89 33 -103 -1 -5 2 -6 8 -2 5 3 10
-3 10 -13 0 -11 7 -36 15 -56 8 -20 12 -36 8 -36 -4 0 -2 -5 5 -12 7 -7 12
-22 12 -35 0 -13 4 -23 9 -23 5 0 8 -8 6 -17 -1 -10 5 -27 14 -37 13 -16 13
-18 1 -11 -12 7 -13 6 -3 -6 10 -12 10 -18 0 -29 -9 -10 -9 -11 1 -6 6 4 12 4
13 -1 0 -4 3 -17 5 -28 3 -11 7 -36 10 -55 4 -19 11 -41 18 -49 9 -12 8 -13
-4 -6 -13 8 -13 6 -1 -8 7 -9 11 -24 7 -32 -3 -8 -2 -15 3 -15 5 0 9 -10 9
-22 1 -13 3 -32 6 -43 2 -11 5 -33 5 -48 1 -20 5 -26 14 -21 8 5 8 2 -2 -9 -7
-9 -10 -17 -5 -17 5 0 10 -16 11 -36 1 -20 6 -41 12 -48 6 -7 6 -17 1 -26 -5
-8 -6 -18 -3 -23 6 -10 12 -49 16 -109 2 -21 6 -41 10 -44 12 -12 8 -26 -5
-18 -10 6 -10 4 0 -8 7 -9 12 -20 11 -24 -1 -5 -1 -26 0 -47 1 -27 5 -36 14
-31 10 6 10 4 0 -7 -15 -16 -17 -33 -3 -24 6 3 10 2 10 -4 0 -5 -5 -13 -10
-16 -6 -4 -7 -11 -3 -18 4 -6 7 -30 8 -53 1 -22 5 -46 9 -53 4 -6 2 -11 -4
-11 -7 0 -8 -5 -3 -12 4 -7 8 -31 8 -53 0 -22 3 -44 6 -50 3 -5 7 -59 8 -120
4 -154 6 -183 13 -191 4 -4 2 -16 -4 -27 -8 -16 -8 -22 1 -25 9 -3 9 -8 -1
-20 -11 -13 -11 -14 2 -7 13 8 13 7 1 -8 -10 -13 -10 -17 -1 -17 10 0 10 -3 0
-15 -7 -8 -9 -15 -4 -15 5 0 9 -57 9 -128 0 -70 4 -135 8 -144 5 -12 3 -18 -5
-18 -9 0 -9 -3 2 -10 11 -7 11 -10 2 -10 -7 0 -10 -5 -6 -11 4 -7 7 -40 6 -75
0 -36 3 -62 8 -59 5 3 3 -7 -5 -22 -8 -15 -11 -32 -7 -37 4 -6 7 -29 6 -51 0
-22 4 -43 10 -47 8 -5 8 -8 0 -8 -7 0 -10 -29 -9 -82 0 -46 -4 -89 -10 -97 -7
-11 -7 -13 2 -8 6 4 14 3 18 -3 3 -5 1 -10 -5 -10 -7 0 -10 -7 -6 -15 3 -8 0
-15 -7 -15 -9 0 -9 -2 0 -8 12 -8 13 -29 0 -49 -4 -7 0 -16 10 -22 10 -6 14
-11 8 -11 -5 0 -10 -27 -11 -60 0 -40 3 -57 10 -53 8 5 8 3 0 -8 -6 -8 -10
-39 -10 -69 1 -30 -2 -62 -6 -71 -4 -9 -4 -19 -1 -23 11 -11 9 -166 -2 -170
-7 -3 -7 -5 0 -5 7 -1 8 -85 5 -241 -3 -157 -2 -240 5 -240 6 0 3 -5 -5 -10
-8 -5 -10 -10 -5 -10 6 0 8 -26 5 -70 -3 -44 -1 -70 5 -70 5 0 3 -5 -5 -10
-13 -9 -13 -10 0 -10 13 0 13 -1 0 -10 -13 -9 -13 -10 0 -10 13 0 13 -1 0 -10
-13 -9 -13 -10 0 -10 13 0 13 -1 0 -10 -8 -5 -10 -10 -4 -10 8 0 9 -13 4 -40
-5 -27 -4 -40 4 -40 6 0 4 -5 -4 -10 -8 -5 -10 -10 -5 -10 6 0 8 -26 5 -70 -3
-44 -1 -70 5 -70 5 0 3 -5 -5 -10 -13 -9 -13 -10 0 -10 13 0 13 -1 0 -10 -13
-9 -13 -10 0 -10 13 0 13 -1 0 -10 -13 -9 -13 -10 0 -10 9 0 11 -3 5 -8 -6 -4
-10 -59 -10 -127 0 -68 4 -123 10 -127 6 -5 4 -8 -5 -8 -13 0 -13 -1 0 -10 13
-9 13 -10 0 -10 -13 0 -13 -1 0 -10 13 -9 13 -10 0 -10 -13 0 -13 -1 0 -10 8
-5 11 -10 5 -10 -6 0 -10 -48 -10 -125 0 -69 4 -125 8 -125 5 0 6 -3 3 -8 -2
-4 269 -7 602 -7 l607 0 0 27 c1 16 -3 28 -8 28 -5 0 -4 6 2 14 9 10 9 16 1
21 -7 5 -8 11 -1 19 6 7 6 17 1 26 -5 8 -6 19 -2 25 10 16 11 34 1 41 -5 3 -6
11 -2 17 4 7 8 57 9 112 1 55 3 134 4 175 1 41 1 80 0 85 -1 6 -2 12 0 15 1 3
3 107 4 233 2 125 6 230 9 233 3 3 2 17 -3 30 -5 13 -6 24 -2 24 4 0 7 66 7
148 -1 90 3 150 10 154 7 5 6 8 -1 8 -13 0 -12 189 1 210 5 8 4 11 -2 7 -5 -4
-10 6 -10 23 0 17 5 27 10 23 6 -3 7 -1 3 6 -11 17 -13 150 -3 144 5 -3 4 3
-1 14 -6 11 -7 25 -2 33 5 8 5 21 -1 31 -12 24 -11 32 3 23 7 -4 8 -3 4 4 -13
22 -15 52 -3 52 8 0 8 3 2 8 -5 4 -11 15 -13 24 -2 13 2 16 15 11 17 -6 17 -6
1 10 -13 13 -15 24 -8 47 5 19 5 28 -1 25 -5 -4 -9 -2 -9 4 0 5 5 13 10 16 6
4 7 12 3 18 -12 19 -11 217 2 217 6 0 6 3 -1 8 -7 4 -11 37 -11 80 0 40 -3 75
-6 79 -4 3 -2 12 4 19 6 8 7 20 2 31 -5 10 -9 48 -8 86 0 37 -3 67 -8 67 -4 0
-5 5 -2 10 4 6 12 7 18 3 8 -4 7 -1 -1 9 -7 9 -13 36 -12 60 1 77 -5 153 -13
166 -5 6 -4 12 1 12 10 0 9 30 -2 48 -4 7 -2 12 5 12 10 0 10 3 1 12 -15 15
-16 32 -1 22 8 -5 8 -1 0 14 -6 12 -9 31 -7 44 2 13 0 33 -5 44 -4 13 -3 26 4
33 6 6 7 11 1 11 -5 0 -10 19 -10 43 -4 111 -9 165 -14 162 -3 -2 -5 19 -4 46
1 27 -3 52 -7 55 -5 3 -4 14 1 25 6 10 7 19 2 19 -5 0 -9 7 -9 15 0 8 5 15 11
15 6 0 5 4 -3 9 -8 5 -11 16 -8 25 3 8 3 17 -2 20 -4 3 -6 23 -5 45 1 23 -1
41 -5 41 -3 0 -7 19 -8 43 -4 84 -8 112 -17 126 -7 10 -6 12 3 6 10 -6 11 -3
1 15 -9 18 -9 24 0 30 9 5 9 9 1 11 -6 2 -12 23 -14 47 -1 23 -5 42 -8 42 -3
0 -7 17 -8 38 -2 66 -7 101 -14 108 -4 4 -7 27 -7 50 0 24 -4 45 -8 48 -5 3
-8 15 -7 28 1 13 -3 29 -9 37 -9 12 -8 13 4 6 12 -7 13 -6 3 7 -7 8 -10 18 -6
21 3 4 2 7 -3 7 -6 0 -10 10 -11 23 -3 53 -8 87 -15 87 -4 0 -5 9 -3 20 2 11
-2 20 -8 20 -9 0 -9 2 0 8 10 6 9 14 -3 37 -8 16 -12 35 -10 42 3 7 1 13 -3
13 -5 0 -8 8 -6 18 1 9 0 22 -4 27 -6 11 -10 27 -13 63 -1 12 -7 22 -12 22 -5
0 -6 3 -3 7 4 3 1 13 -6 21 -10 13 -9 14 3 7 13 -8 13 -6 2 8 -8 9 -11 21 -7
27 3 5 2 10 -4 10 -6 0 -8 7 -5 15 4 8 1 15 -6 15 -7 0 -10 7 -6 16 3 8 -1 22
-9 30 -8 8 -12 20 -9 27 2 7 -2 32 -10 55 -8 23 -12 42 -9 42 3 0 -2 10 -13
22 -12 13 -13 18 -4 13 12 -7 13 -6 3 7 -7 8 -10 18 -6 21 3 4 1 7 -5 7 -7 0
-12 11 -12 24 0 13 -8 41 -17 62 -9 22 -18 46 -19 55 -2 9 -13 37 -24 63 -11
26 -20 54 -20 62 0 8 -4 14 -8 14 -5 0 -9 6 -9 13 -1 22 -8 41 -21 55 -7 8
-10 18 -7 23 4 5 1 9 -4 9 -6 0 -11 9 -11 19 0 11 -6 26 -12 33 -7 7 -14 20
-16 28 -2 8 -14 37 -28 64 -13 28 -24 56 -24 64 0 7 -4 10 -10 7 -5 -3 -10 0
-10 7 0 13 -40 98 -51 108 -3 3 -13 21 -22 40 -24 48 -40 74 -52 82 -5 4 -6 8
-2 8 4 0 -1 10 -12 22 -11 11 -18 26 -14 31 3 6 1 7 -4 4 -12 -8 -26 20 -17
34 3 5 0 8 -8 7 -7 -2 -12 3 -11 10 2 6 -1 12 -5 12 -5 0 -24 22 -43 50 -19
27 -38 50 -42 50 -5 0 -6 4 -3 9 3 5 -1 11 -9 15 -8 3 -15 10 -15 16 0 6 -10
21 -22 34 -44 45 -66 74 -61 80 4 3 -1 6 -10 6 -10 0 -17 4 -17 10 0 5 -18 28
-40 51 -22 23 -40 46 -40 50 0 4 -9 11 -20 14 -11 3 -20 11 -20 16 0 9 -17 26
-99 102 -23 21 -41 42 -41 48 0 6 -4 8 -8 5 -5 -3 -19 6 -30 19 -12 14 -27 25
-33 25 -5 0 -7 5 -4 10 3 6 1 10 -4 10 -10 0 -19 6 -79 58 -45 38 -51 42 -61
42 -5 0 -11 6 -13 13 -6 16 -56 16 -62 0z"/>
<path d="M10010 9033 c0 -5 -18 -8 -40 -6 -22 1 -42 -2 -44 -6 -3 -4 -21 -6
-40 -5 -20 2 -36 -1 -36 -5 0 -5 -13 -7 -30 -5 -19 2 -30 -1 -30 -9 0 -8 -4
-7 -10 3 -6 9 -10 10 -10 3 0 -6 -8 -11 -17 -11 -36 1 -105 -11 -117 -21 -9
-7 -16 -7 -24 1 -9 9 -12 9 -12 0 0 -6 -6 -9 -14 -6 -8 3 -17 1 -21 -5 -4 -8
-12 -8 -27 0 -15 8 -19 8 -14 0 5 -7 -2 -11 -18 -11 -14 0 -28 -5 -31 -10 -4
-6 -10 -8 -15 -5 -5 3 -27 -1 -49 -9 -22 -7 -38 -10 -35 -5 3 5 -2 6 -10 3 -9
-3 -16 -9 -16 -13 0 -4 -12 -7 -27 -6 -16 0 -39 -6 -53 -15 -13 -8 -25 -14
-27 -12 -2 1 -4 2 -5 1 -2 0 -10 -2 -18 -4 -8 -2 -26 -7 -40 -10 -14 -4 -34
-8 -45 -10 -11 -1 -19 -8 -17 -14 1 -7 -1 -10 -6 -7 -11 7 -82 -12 -82 -22 0
-4 -9 -9 -20 -10 -11 -1 -29 -3 -40 -4 -11 -1 -20 -6 -20 -9 0 -8 -28 -19 -44
-18 -5 0 -13 -6 -18 -15 -5 -9 -13 -14 -18 -11 -5 3 -24 -2 -42 -12 -18 -9
-36 -16 -40 -15 -5 1 -8 -2 -8 -7 0 -8 -27 -19 -40 -17 -3 1 -19 -9 -37 -22
-17 -12 -36 -22 -42 -22 -6 0 -11 -3 -11 -8 0 -4 -18 -15 -40 -25 -22 -9 -40
-21 -40 -26 0 -5 -10 -13 -22 -17 -26 -8 -156 -103 -199 -145 -16 -16 -34 -29
-40 -29 -6 0 -8 -4 -4 -9 3 -5 -4 -12 -15 -16 -11 -4 -18 -11 -15 -16 4 -5 -1
-9 -9 -9 -9 0 -16 -3 -16 -7 -1 -14 -67 -83 -80 -83 -6 0 -8 -4 -5 -10 3 -5 1
-10 -6 -10 -7 0 -10 -3 -7 -6 4 -3 -1 -14 -10 -23 -9 -10 -24 -28 -32 -40 -8
-13 -25 -35 -37 -49 -12 -14 -21 -28 -21 -31 3 -15 -15 -40 -25 -34 -6 4 -8 0
-4 -10 3 -10 3 -17 -1 -17 -9 0 -72 -122 -72 -140 0 -6 -4 -9 -9 -6 -5 4 -8
-2 -7 -11 2 -10 -3 -24 -11 -31 -7 -8 -11 -17 -8 -22 3 -5 1 -11 -5 -15 -6 -4
-8 -11 -5 -16 4 -5 0 -12 -9 -15 -8 -3 -13 -11 -10 -19 3 -7 -2 -19 -10 -28
-8 -8 -12 -17 -9 -21 3 -3 2 -11 -4 -18 -5 -7 -9 -20 -8 -28 0 -8 -4 -18 -9
-22 -5 -3 -11 -15 -12 -25 -4 -32 -12 -61 -23 -82 -6 -11 -10 -24 -9 -28 3
-13 -13 -73 -20 -73 -4 0 -8 -17 -9 -37 -1 -20 -8 -40 -15 -44 -10 -7 -10 -9
2 -9 10 0 11 -3 4 -8 -6 -4 -12 -14 -12 -22 -4 -33 -8 -56 -14 -65 -3 -6 -8
-28 -9 -50 -2 -22 -7 -42 -11 -45 -3 -3 -9 -25 -12 -50 -10 -70 -14 -95 -16
-95 -1 0 -3 -12 -4 -26 -2 -14 -6 -32 -11 -39 -6 -9 -4 -11 6 -5 11 7 12 6 2
-6 -13 -16 -13 -16 -13 -66 0 -28 -3 -34 -10 -23 -6 9 -10 10 -10 3 0 -6 5
-15 10 -18 7 -4 7 -11 2 -18 -5 -7 -9 -24 -8 -39 1 -16 -1 -28 -5 -28 -4 0 -5
-14 -4 -30 1 -17 0 -32 -4 -34 -4 -3 -6 -21 -6 -40 1 -20 -1 -36 -5 -36 -3 0
-5 -14 -4 -32 1 -17 -2 -42 -6 -54 -6 -16 -5 -26 3 -31 16 -10 87 -11 93 -1 3
5 10 5 17 1 16 -10 57 -10 57 0 0 4 6 5 13 0 17 -11 57 -12 57 -1 0 5 6 6 13
1 17 -10 77 -11 83 -1 3 5 10 5 17 1 17 -10 57 -10 57 0 0 6 5 5 13 0 13 -10
73 -10 84 0 3 4 12 2 20 -4 9 -8 17 -8 26 0 8 6 17 8 21 4 11 -11 40 -10 48 2
5 6 8 6 8 -2 0 -11 36 -10 48 1 2 3 13 1 23 -5 13 -7 19 -6 19 1 0 6 5 8 13 3
17 -10 77 -11 83 -1 3 5 10 5 17 1 17 -10 57 -10 57 0 0 6 5 5 13 0 13 -10 73
-10 84 0 3 4 12 2 20 -4 9 -8 17 -8 26 0 8 6 17 8 21 4 11 -11 40 -10 48 2 5
6 8 6 8 -2 0 -11 36 -10 48 1 2 3 13 1 23 -5 13 -7 19 -6 19 1 0 6 5 8 13 3
17 -10 77 -11 83 -1 3 5 11 5 17 1 17 -11 57 -11 63 -1 3 4 10 5 17 1 16 -10
57 -10 57 0 0 4 6 5 13 0 17 -11 57 -12 57 -1 0 5 6 6 13 1 17 -10 77 -11 83
-1 3 5 10 5 17 1 17 -10 57 -10 57 0 0 6 5 5 13 0 13 -10 73 -10 84 0 3 4 12
2 20 -4 9 -8 17 -8 26 0 8 6 17 8 21 4 11 -11 40 -10 48 2 5 6 8 6 8 -2 0 -11
36 -10 48 1 2 3 13 1 23 -5 13 -7 19 -6 19 1 0 6 5 8 13 3 17 -10 77 -11 83
-1 3 5 10 5 17 1 17 -10 57 -10 57 0 0 6 5 5 13 0 13 -10 73 -10 84 0 3 4 12
2 20 -4 9 -8 17 -8 26 0 8 6 17 8 21 4 11 -11 40 -10 48 2 5 6 8 6 8 -2 0 -11
36 -10 48 1 2 3 13 1 23 -5 13 -7 19 -6 19 1 0 6 5 8 13 3 17 -10 77 -11 83
-1 3 5 11 5 17 1 17 -11 57 -11 63 -1 3 4 10 5 17 1 16 -10 57 -10 57 0 0 4 6
5 13 0 17 -11 57 -12 57 -1 0 5 6 6 13 1 17 -10 77 -11 83 -1 3 5 10 5 17 1
17 -10 57 -10 57 0 0 6 5 5 13 0 13 -10 73 -10 84 0 3 4 12 2 20 -4 9 -8 17
-8 26 0 8 6 17 8 21 4 11 -11 40 -10 48 2 5 6 8 6 8 -2 0 -11 36 -10 48 1 2 3
13 1 23 -5 13 -7 19 -6 19 1 0 6 5 8 13 3 17 -10 77 -11 83 -1 3 5 10 5 17 1
17 -10 57 -10 57 0 0 6 5 5 13 0 13 -10 73 -10 84 0 3 4 12 2 20 -4 9 -8 17
-8 26 0 8 6 17 8 21 4 11 -11 40 -10 48 2 5 6 8 6 8 -2 0 -11 36 -10 48 1 2 3
13 1 23 -5 13 -7 19 -6 19 1 0 6 5 8 13 3 17 -10 77 -11 83 -1 3 5 11 5 17 1
17 -11 57 -11 63 -1 3 4 10 5 17 1 16 -10 57 -10 57 0 0 4 6 5 13 0 17 -11 57
-12 57 -1 0 5 6 6 13 1 17 -10 77 -11 83 -1 3 5 10 5 17 1 17 -10 57 -10 57 0
0 6 5 5 13 0 13 -10 73 -10 84 0 3 4 12 2 20 -4 9 -8 17 -8 26 0 8 6 17 8 21
4 11 -11 40 -10 48 2 5 6 8 6 8 -2 0 -11 36 -10 48 1 2 3 13 1 23 -5 14 -7 19
-6 19 2 0 7 4 8 13 2 14 -11 67 -11 84 0 6 4 14 3 18 -3 4 -6 12 -7 24 -1 9 5
23 6 31 1 31 -19 40 0 37 80 -1 43 -5 76 -8 74 -3 -2 -6 11 -6 29 -1 76 -7
117 -17 117 -6 0 -4 5 4 10 9 6 11 13 5 18 -5 4 -11 25 -13 47 -3 40 -9 80
-12 80 -2 0 -5 30 -11 98 -2 20 -6 37 -9 37 -5 0 -7 15 -13 90 -1 14 -5 27 -9
30 -4 3 -8 17 -10 30 -2 14 -7 31 -12 39 -6 9 -5 12 2 7 6 -3 2 16 -8 44 -10
27 -15 50 -12 50 4 0 0 5 -8 10 -12 8 -12 10 -1 10 11 0 11 3 1 15 -7 8 -9 15
-4 15 5 0 3 4 -3 8 -7 5 -14 21 -16 38 -2 16 -9 39 -15 50 -6 12 -8 24 -4 28
3 4 2 10 -3 14 -6 4 -16 25 -23 47 -8 22 -21 55 -29 74 -8 18 -16 39 -17 45
-1 6 -5 17 -9 24 -5 6 -6 16 -3 21 3 5 -1 11 -9 14 -7 3 -17 22 -21 41 -3 20
-10 36 -14 36 -8 0 -19 24 -21 45 0 6 -7 14 -15 18 -8 4 -14 14 -14 21 0 7
-18 41 -40 75 -22 34 -38 66 -35 72 4 5 0 9 -8 9 -7 0 -19 11 -25 25 -6 14
-16 25 -22 25 -5 0 -9 3 -9 8 3 19 -2 33 -11 27 -5 -3 -10 0 -10 7 0 7 -24 40
-54 73 -30 32 -52 64 -49 70 4 5 3 7 -1 3 -4 -3 -34 19 -65 50 -73 72 -141
131 -141 123 0 -3 -10 5 -21 19 -11 14 -18 18 -14 10 4 -10 1 -9 -8 3 -8 9
-17 17 -21 17 -4 0 -16 9 -28 20 -12 11 -28 20 -37 20 -8 0 -12 3 -8 6 3 3
-20 20 -51 36 -31 17 -64 37 -73 44 -9 8 -19 11 -22 7 -4 -3 -7 -1 -7 5 0 7
-3 12 -7 11 -16 -2 -53 14 -53 22 0 5 -7 9 -15 9 -18 0 -57 20 -67 35 -5 6 -8
4 -8 -5 0 -11 -2 -12 -8 -3 -4 7 -26 19 -47 27 -22 8 -53 20 -70 27 -16 6 -36
13 -43 15 -8 1 -21 6 -30 10 -9 4 -26 9 -37 11 -10 2 -22 7 -25 11 -5 6 -13 8
-62 14 -10 1 -18 7 -18 12 0 5 -3 7 -6 3 -4 -3 -21 0 -39 8 -19 7 -36 11 -39
7 -3 -3 -6 1 -6 9 0 11 -2 11 -10 -1 -5 -8 -10 -10 -10 -5 0 10 -14 14 -57 17
-7 1 -13 4 -13 7 0 4 -12 6 -27 5 -16 -1 -33 3 -40 8 -7 5 -17 7 -22 4 -5 -4
-12 -2 -16 3 -3 6 -13 7 -22 4 -10 -4 -14 -2 -10 4 3 5 -3 9 -16 8 -12 -1 -28
3 -36 9 -11 8 -13 8 -8 -1 5 -8 -4 -8 -29 3 -22 9 -33 11 -29 4 5 -9 2 -9 -12
-2 -10 6 -41 13 -68 15 -28 3 -50 6 -50 7 0 1 -12 3 -26 4 -14 2 -31 6 -37 10
-7 4 -12 2 -12 -6 0 -10 -2 -10 -9 1 -5 7 -13 11 -19 7 -6 -3 -13 -2 -16 2 -3
5 -18 8 -33 6 -15 -1 -33 2 -40 8 -7 6 -13 6 -13 1z"/>
<path d="M7589 6120 c-6 -23 -19 -172 -21 -252 -2 -32 -7 -58 -13 -58 -7 0 -7
-3 0 -8 12 -8 13 -22 2 -39 -5 -8 -4 -13 3 -13 6 0 8 -5 4 -12 -12 -19 -12
-48 0 -48 8 0 8 -3 1 -8 -6 -4 -11 -42 -10 -85 0 -45 -4 -77 -10 -77 -7 0 -7
-3 0 -8 11 -7 16 -52 6 -52 -7 0 -4 -87 3 -107 3 -8 2 -12 -2 -9 -4 2 -8 -65
-7 -150 0 -85 -4 -154 -9 -154 -5 0 -4 -6 2 -13 6 -7 7 -18 2 -27 -4 -7 -4
-24 1 -37 5 -13 5 -23 0 -23 -10 0 -9 -19 2 -37 4 -6 2 -15 -4 -19 -8 -4 -7
-9 2 -15 11 -7 11 -9 1 -9 -9 0 -10 -5 -4 -17 6 -9 6 -29 2 -45 -6 -19 -5 -28
3 -28 8 0 8 -3 2 -8 -5 -4 -10 -20 -10 -37 0 -16 5 -33 10 -37 7 -5 6 -8 0 -8
-12 0 -13 -40 -2 -57 4 -7 2 -15 -4 -19 -8 -4 -7 -9 2 -15 11 -7 11 -9 1 -9
-9 0 -10 -5 -3 -19 6 -10 8 -20 6 -23 -10 -9 -12 -69 -4 -74 5 -3 5 -12 0 -22
-5 -9 -5 -26 0 -39 5 -14 5 -23 -1 -23 -5 0 -5 -12 0 -30 5 -19 5 -30 -1 -30
-6 0 -7 -5 -3 -11 3 -6 7 -84 8 -173 0 -151 2 -162 21 -170 27 -12 59 -13 66
-2 4 5 13 5 20 0 17 -10 51 -10 67 0 6 4 12 3 12 -3 0 -6 11 -6 29 -1 21 6 31
5 35 -3 3 -8 5 -8 5 1 1 7 6 10 12 6 18 -11 53 -11 61 0 4 6 11 6 20 -1 16
-14 20 -14 58 -3 18 5 30 5 30 0 0 -6 10 -6 24 0 17 6 26 5 30 -3 3 -9 5 -8 5
1 1 7 6 10 12 6 17 -10 53 -11 60 -1 4 5 13 6 20 1 17 -10 51 -10 67 0 6 4 12
3 12 -3 0 -6 11 -6 29 -1 21 6 31 5 35 -3 3 -8 5 -8 5 1 1 10 6 10 21 2 14 -8
20 -8 20 0 0 6 5 8 13 3 19 -12 37 -12 37 -1 0 7 4 7 13 0 6 -5 21 -6 32 -2
11 4 28 4 37 -1 10 -6 19 -5 23 1 4 6 12 7 18 3 19 -12 37 -12 37 -1 0 7 4 7
13 0 6 -5 21 -6 32 -2 11 4 28 4 37 -1 10 -6 19 -5 23 1 4 6 12 7 18 3 19 -12
37 -12 37 -1 0 7 4 7 13 0 6 -5 21 -6 32 -2 11 4 28 4 37 -1 10 -6 19 -5 23 1
4 6 12 7 18 3 19 -12 37 -12 37 0 0 8 3 8 11 0 8 -8 20 -8 34 -3 13 5 25 6 28
3 10 -10 67 -9 70 1 3 8 8 7 18 -1 17 -14 21 -14 59 -3 18 5 30 5 30 0 0 -6
10 -6 24 0 17 6 26 5 30 -3 3 -9 5 -8 5 1 1 7 6 10 12 6 17 -10 53 -11 60 -1
4 5 13 6 20 1 17 -10 51 -10 67 0 6 4 12 3 12 -3 0 -6 11 -6 29 -1 21 6 31 5
35 -3 3 -8 5 -8 5 1 1 7 6 10 12 6 18 -11 53 -11 61 0 4 6 11 6 20 -1 16 -14
20 -14 58 -3 19 5 30 5 30 -1 0 -6 5 -7 11 -4 14 9 79 12 79 4 0 -8 32 -5 48
5 6 4 12 3 12 -3 0 -6 11 -6 29 -1 21 6 31 5 35 -3 3 -8 5 -8 5 1 1 7 6 10 12
6 17 -10 53 -11 60 -1 4 5 13 6 20 1 17 -10 51 -10 67 0 6 4 12 3 12 -3 0 -6
11 -6 29 -1 21 6 31 5 35 -3 3 -8 5 -8 5 1 1 7 6 10 12 6 18 -11 53 -11 61 0
4 6 11 6 20 -1 16 -14 20 -14 58 -3 16 5 30 5 30 1 0 -10 43 -8 51 3 4 5 13 5
20 0 18 -11 28 -12 62 -3 15 4 27 4 27 -1 0 -6 10 -6 24 0 17 6 26 5 30 -3 3
-9 5 -8 5 1 1 7 6 10 12 6 17 -10 53 -11 60 -1 4 5 13 6 20 1 17 -10 51 -10
67 0 6 4 12 3 12 -3 0 -6 11 -6 29 -1 21 6 31 5 35 -3 3 -8 5 -8 5 1 1 7 6 10
12 6 18 -11 53 -11 61 0 4 6 11 6 20 -1 16 -14 20 -14 58 -3 19 5 30 5 30 -1
0 -6 5 -7 11 -4 14 9 79 12 79 4 0 -8 32 -5 48 5 6 4 12 3 12 -3 0 -6 11 -6
29 -1 21 6 31 5 35 -3 3 -8 5 -8 5 1 1 7 6 10 12 6 17 -10 53 -11 60 -1 4 5
13 6 20 1 17 -10 51 -10 67 0 6 4 12 3 12 -3 0 -6 11 -6 29 -1 21 6 31 5 35
-3 3 -8 5 -8 5 1 1 7 6 10 12 6 18 -11 53 -11 61 0 4 6 11 6 20 -1 16 -14 20
-14 58 -3 20 6 30 5 30 -2 0 -7 4 -7 13 1 8 6 17 8 21 4 11 -11 36 -12 36 -1
0 7 4 7 13 0 6 -5 21 -6 32 -2 11 4 28 4 37 -1 10 -6 19 -5 23 1 4 6 12 7 18
3 19 -12 37 -12 37 -1 0 7 4 7 13 0 6 -5 21 -6 32 -2 11 4 28 4 37 -1 10 -6
19 -5 23 1 4 6 12 7 18 3 19 -12 37 -12 37 -1 0 7 4 7 13 0 6 -5 21 -6 32 -2
11 4 28 4 37 -1 10 -6 19 -5 23 1 4 6 12 7 18 3 19 -12 37 -12 37 -1 0 7 4 7
13 0 6 -5 21 -6 32 -2 11 4 28 4 37 -1 10 -6 19 -5 23 1 4 6 11 7 18 3 16 -9
58 -10 63 -1 3 5 13 4 23 -1 9 -5 23 -6 31 -1 7 4 23 4 35 0 14 -5 27 -4 34 3
7 7 11 7 11 1 0 -6 13 -9 30 -6 33 5 33 6 32 102 -1 32 4 58 11 62 9 6 9 8 0
8 -15 0 -14 60 1 79 8 11 8 13 -1 7 -10 -5 -12 3 -11 33 1 23 6 41 12 41 7 0
6 3 -1 8 -13 8 -13 76 0 88 3 4 2 14 -3 23 -8 15 -8 45 0 76 1 6 1 12 0 15 -8
21 -6 40 3 40 8 0 8 3 2 8 -14 10 -16 64 -2 55 6 -4 7 -1 2 7 -11 18 -13 60
-3 66 5 3 4 13 -1 23 -6 10 -6 23 -1 31 5 8 4 22 -1 32 -7 13 -6 18 3 18 9 0
9 3 -2 10 -13 9 -13 10 0 10 9 0 11 3 5 8 -16 11 -19 46 -3 36 10 -6 11 -5 1
7 -10 12 -10 18 -1 27 9 9 9 12 -1 12 -10 0 -11 3 -2 14 7 8 8 16 4 19 -10 6
-8 70 2 86 3 6 1 11 -6 11 -9 0 -9 3 0 14 8 9 8 16 2 20 -7 5 -7 15 -1 32 7
18 7 23 -1 18 -8 -4 -8 0 0 15 7 11 8 21 2 21 -12 0 -9 33 4 42 6 5 5 8 -4 8
-11 0 -11 3 -1 15 8 9 8 15 2 15 -7 0 -8 10 -2 29 5 19 4 33 -3 40 -8 8 -7 11
3 11 13 0 13 2 0 10 -13 9 -13 11 0 20 10 6 11 10 3 10 -9 0 -10 7 -3 25 5 14
5 27 1 30 -8 4 -8 26 -1 45 1 3 1 10 0 15 -8 38 -8 45 3 45 9 0 9 2 0 8 -14 9
-13 52 2 52 7 0 7 3 0 8 -6 4 -11 39 -12 77 -4 263 -9 375 -18 375 -5 0 -4 5
2 11 7 7 8 21 3 40 -10 32 -10 35 -10 49 0 7 -6 7 -19 1 -10 -6 -21 -8 -24 -4
-8 8 -123 7 -136 -1 -5 -4 -13 -2 -16 4 -4 7 -11 8 -18 2 -7 -5 -21 -6 -32 -2
-11 4 -30 4 -42 -1 -13 -5 -25 -4 -29 2 -4 7 -10 7 -18 0 -6 -6 -18 -6 -25 -2
-8 5 -26 5 -41 1 -15 -4 -33 -4 -41 0 -7 5 -16 7 -19 5 -8 -5 -75 -6 -115 -2
-16 1 -40 -1 -52 -5 -12 -4 -25 -3 -28 2 -3 6 -15 6 -30 0 -14 -5 -25 -6 -25
-1 0 8 -29 8 -37 1 -8 -7 -30 -5 -40 2 -6 5 -14 5 -18 -2 -3 -6 -13 -7 -23 -2
-18 9 -103 8 -127 -2 -8 -3 -17 -1 -20 4 -3 6 -15 6 -30 0 -14 -5 -25 -6 -25
-1 0 8 -29 8 -37 1 -8 -7 -30 -5 -40 2 -6 5 -14 5 -18 -2 -4 -7 -12 -7 -24 0
-11 5 -30 6 -48 1 -17 -5 -36 -5 -43 -1 -6 4 -27 4 -46 0 -18 -4 -35 -5 -38
-2 -7 7 -123 5 -135 -2 -5 -4 -13 -2 -16 4 -4 7 -11 8 -18 2 -7 -5 -21 -6 -32
-2 -11 4 -30 4 -42 -1 -13 -5 -25 -4 -29 2 -4 7 -10 7 -18 0 -6 -6 -18 -6 -25
-2 -8 5 -26 5 -41 1 -15 -4 -33 -4 -41 0 -7 5 -16 7 -19 5 -8 -5 -75 -6 -115
-2 -16 1 -40 -1 -52 -5 -12 -4 -25 -3 -28 2 -3 6 -15 6 -30 0 -14 -5 -25 -6
-25 -1 0 8 -29 8 -37 1 -8 -7 -30 -5 -40 2 -6 5 -14 5 -18 -2 -3 -6 -13 -7
-23 -2 -18 9 -103 8 -127 -2 -8 -3 -17 -1 -20 4 -3 6 -15 6 -30 0 -14 -5 -25
-6 -25 -1 0 8 -29 8 -37 1 -8 -7 -30 -5 -40 2 -6 5 -14 5 -18 -2 -4 -7 -12 -7
-24 0 -11 5 -30 6 -48 1 -17 -5 -36 -5 -43 -1 -6 4 -27 4 -46 0 -18 -4 -35 -5
-38 -2 -7 7 -123 5 -135 -2 -5 -4 -13 -2 -16 4 -4 7 -11 8 -18 2 -7 -5 -21 -6
-32 -2 -11 4 -30 4 -42 -1 -13 -5 -25 -4 -29 2 -4 7 -10 7 -18 0 -6 -6 -18 -6
-25 -2 -8 5 -26 5 -41 1 -15 -4 -33 -4 -41 0 -7 5 -16 7 -19 5 -8 -5 -75 -6
-115 -2 -16 1 -40 -1 -52 -5 -12 -4 -25 -3 -28 2 -3 6 -15 6 -30 0 -14 -5 -25
-6 -25 -1 0 8 -29 8 -37 1 -8 -7 -30 -5 -40 2 -6 5 -14 5 -18 -2 -3 -6 -13 -7
-23 -2 -18 9 -103 8 -127 -2 -8 -3 -17 -1 -20 4 -3 6 -15 6 -30 0 -14 -5 -25
-6 -25 -1 0 8 -29 8 -37 1 -8 -7 -30 -5 -40 2 -6 5 -14 5 -18 -2 -4 -7 -12 -7
-24 0 -11 5 -30 6 -48 1 -17 -5 -36 -5 -43 -1 -6 4 -27 4 -46 0 -18 -4 -35 -5
-38 -2 -7 7 -123 5 -135 -2 -5 -4 -13 -2 -16 4 -4 7 -11 8 -18 2 -7 -5 -21 -6
-32 -2 -11 4 -30 4 -42 -1 -13 -5 -25 -4 -29 2 -4 7 -10 7 -18 0 -6 -6 -18 -6
-25 -2 -8 5 -26 5 -41 1 -15 -4 -33 -4 -41 0 -7 5 -16 7 -19 5 -8 -5 -75 -6
-115 -2 -16 1 -40 -1 -52 -5 -12 -4 -25 -3 -28 2 -3 6 -15 6 -30 0 -14 -5 -25
-6 -25 -1 0 8 -29 8 -37 1 -8 -7 -30 -5 -40 2 -6 5 -14 5 -18 -2 -3 -6 -11 -7
-17 -4 -12 8 -157 11 -159 4z"/>
</g>
</svg>
